<?xml version="1.0" standalone="no"?>
<!DOCTYPE svg PUBLIC "-//W3C//DTD SVG 1.0//EN" "http://www.w3.org/TR/2001/REC-SVG-20010904/DTD/svg10.dtd">
<svg xmlns="http://www.w3.org/2000/svg" xmlns:xlink="http://www.w3.org/1999/xlink" id="body_1" width="768" height="576">

<g transform="matrix(1.152 0 0 1.152 96.000015 -0)">
	<g>
        <path d="M0 382.4L500 382.4L500 382.65L0 382.65z" stroke="none" fill="#EBEBEB" fill-rule="nonzero" />
        <path d="M428.22 398.49L449.9 398.49L449.9 398.74L428.22 398.74z" stroke="none" fill="#EBEBEB" fill-rule="nonzero" />
        <path d="M310.56 393.31L344.66998 393.31L344.66998 393.56L310.56 393.56z" stroke="none" fill="#EBEBEB" fill-rule="nonzero" />
        <path d="M396.59 389.21L441.12 389.21L441.12 389.46L396.59 389.46z" stroke="none" fill="#EBEBEB" fill-rule="nonzero" />
        <path d="M161.88 394.25L173.02 394.25L173.02 394.5L161.88 394.5z" stroke="none" fill="#EBEBEB" fill-rule="nonzero" />
        <path d="M114.58 394.25L152.97 394.25L152.97 394.5L114.58 394.5z" stroke="none" fill="#EBEBEB" fill-rule="nonzero" />
        <path d="M66.31 390.03L94.009995 390.03L94.009995 390.28L66.31 390.28z" stroke="none" fill="#EBEBEB" fill-rule="nonzero" />
        <path d="M237 337.8L43.91 337.8C 40.76036 337.7945 38.21 335.23965 38.21 332.09L38.21 332.09L38.21 60.66C 38.2374 57.529896 40.779774 55.005363 43.91 55L43.91 55L237 55C 238.51439 54.999996 239.96675 55.601585 241.0376 56.672417C 242.10843 57.743248 242.71002 59.19561 242.71 60.71L242.71 60.71L242.71 332.09C 242.71 335.24356 240.15355 337.8 237 337.8zM43.91 55.2C 40.89843 55.205517 38.45999 57.648426 38.46 60.66L38.46 60.66L38.46 332.09C 38.46 335.1016 40.898434 337.5445 43.91 337.55L43.91 337.55L237 337.55C 240.0132 337.5445 242.4545 335.1032 242.46 332.09L242.46 332.09L242.46 60.66C 242.45451 57.646805 240.0132 55.205498 237 55.2z" stroke="none" fill="#EBEBEB" fill-rule="nonzero" />
        <path d="M453.31 337.8L260.21 337.8C 257.05872 337.7945 254.5055 335.24127 254.49998 332.09L254.49998 332.09L254.49998 60.66C 254.53282 57.52828 257.0781 55.005302 260.21 55L260.21 55L453.31 55C 456.43634 55.010834 458.97266 57.53378 459 60.66L459 60.66L459 332.09C 459.00003 335.23575 456.45575 337.78897 453.31 337.8zM260.21 55.2C 257.19678 55.205498 254.75548 57.646805 254.74998 60.66L254.74998 60.66L254.74998 332.09C 254.7555 335.1032 257.1968 337.5445 260.21 337.55L260.21 337.55L453.31 337.55C 456.32318 337.5445 458.76447 335.1032 458.77 332.09L458.77 332.09L458.77 60.66C 458.76447 57.646812 456.32318 55.20551 453.31 55.2z" stroke="none" fill="#EBEBEB" fill-rule="nonzero" />
        <path d="M216.07 200.88L216.52 187.74L208.46 185.1C 208.1135 180.64694 207.39091 176.23123 206.3 171.90001L206.3 171.90001L213.14 166.90001L208.5 154.56001L200.04 155.24C 198.03421 151.2642 195.69234 147.46704 193.04 143.89L193.04 143.89L197.42 136.58L188.42 126.97L180.86 130.84C 177.46043 127.9341 173.8283 125.312 170 123L170 123L171.22 114.6L159.22 109.159996L153.72 115.6C 149.47696 114.24272 145.12874 113.23928 140.72 112.6L140.72 112.6L138.72 104.369995L125.54 103.92L122.94 111.99C 118.49134 112.33976 114.07945 113.05891 109.75 114.14L109.75 114.14L104.67 107.34L92.33 111.95L93.01 120.409996C 89.03627 122.44632 85.23978 124.811195 81.66 127.479996L81.66 127.479996L74.3 123L64.65 132L68.520004 139.6C 65.61336 142.98254 63.00373 146.60925 60.720005 150.44L60.720005 150.44L52.330006 149.18001L46.850006 161.18001L53.330006 166.67001C 51.96309 170.91042 50.95948 175.25943 50.330006 179.67001L50.330006 179.67001L42 181.76L41.55 194.9L49.65 197.54C 49.985046 201.99043 50.70439 206.40353 51.800003 210.73L51.800003 210.73L44.960003 215.73L49.610004 228.08L58.070004 227.40001C 60.070724 231.37863 62.412857 235.17624 65.07001 238.75002L65.07001 238.75002L60.680008 246.06001L69.68001 255.67001L77.240005 251.80002C 80.63059 254.70523 84.256424 257.32425 88.08 259.63L88.08 259.63L86.82 268.02002L98.82 273.47003L104.35 267.03003C 108.592926 268.39957 112.94071 269.41962 117.35 270.08002L117.35 270.08002L119.35 278.31003L132.53 278.76004L135.13 270.69003C 139.58145 270.3362 143.99637 269.61713 148.33 268.54004L148.33 268.54004L153.33 275.34003L165.67 270.73004L165.03 262.27005C 168.9964 260.22083 172.79189 257.85657 176.38 255.20004L176.38 255.20004L183.65001 259.58005L193.3 250.58005L189.43001 242.98004C 192.33757 239.59822 194.94724 235.97144 197.23001 232.14005L197.23001 232.14005L205.62001 233.40004L211.1 221.40004L204.62001 215.90004C 206.00995 211.66286 207.03044 207.31325 207.67001 202.90004L207.67001 202.90004L216.07 200.88zM127.28001 243.45001C 106.19172 242.7376 87.60988 229.38998 80.20164 209.63293C 72.793396 189.87587 78.018196 167.60156 93.439026 153.19943C 108.85986 138.79732 131.43878 135.10463 150.64426 143.84378C 169.84975 152.58292 181.89827 172.03226 181.17001 193.12001C 180.1817 221.8972 156.05754 244.4277 127.28 243.45z" stroke="none" fill="#EBEBEB" fill-rule="nonzero" />
        <path d="M441 157.42L444.31 154.33L443 151.72C 443.99933 150.55049 444.89914 149.29947 445.69 147.98L445.69 147.98L448.59 148.40999L450.46 144.26999L448.24 142.37999C 448.71814 140.91621 449.06943 139.414 449.28998 137.88998L449.28998 137.88998L452.13998 137.17998L452.28 132.63998L449.5 131.73999C 449.37793 130.20236 449.13043 128.6773 448.76 127.17999L448.76 127.17999L451.11002 125.42999L449.51 121.17999L446.6 121.409996C 445.89822 120.03929 445.0855 118.72826 444.17 117.49L444.17 117.49L445.68002 114.99L442.57004 111.67L439.97003 113C 438.79874 112.002975 437.54788 111.1033 436.23004 110.31L436.23004 110.31L436.65005 107.409996L432.52005 105.52L430.62006 107.75C 429.15356 107.293335 427.65176 106.958855 426.13007 106.75L426.13007 106.75L425.42007 103.91L420.88007 103.740005L419.97006 106.54001C 418.43845 106.657074 416.91962 106.90463 415.43005 107.28001L415.43005 107.28001L413.69006 104.93001L409.43005 106.520004L409.67004 109.44C 408.2954 110.134895 406.9838 110.94795 405.75003 111.87L405.75003 111.87L403.23004 110.36L399.91003 113.45L401.2 116C 400.1934 117.16612 399.29 118.417496 398.5 119.74L398.5 119.74L395.61 119.31L393.72998 123.45L395.96 125.35C 395.4977 126.811584 395.16312 128.31055 394.96 129.83L394.96 129.83L392.1 130.54001L391.96 135.08L394.75 135.98C 394.8638 137.51791 395.108 139.04341 395.48 140.54L395.48 140.54L393.12003 142.28L394.72003 146.53L397.64005 146.31C 398.34183 147.6807 399.15454 148.99173 400.07004 150.23L400.07004 150.23L398.56003 152.73L401.67 156.05L404.27002 154.72C 405.4388 155.72025 406.6899 156.62012 408.01 157.41L408.01 157.41L407.58002 160.3L411.72003 162.19L413.62003 159.97C 415.08777 160.42194 416.58917 160.75632 418.11002 160.97L418.11002 160.97L418.82 163.81L423.36002 163.98L424.27002 161.18C 425.80173 161.06361 427.32065 160.81604 428.81003 160.43999L428.81003 160.43999L430.55002 162.79L434.81003 161.2L434.58002 158.28C 435.95093 157.58412 437.25912 156.7711 438.49002 155.85L438.49002 155.85L441 157.42zM417.38 138.29C 415.59418 136.3764 415.13724 133.57536 416.22232 131.19344C 417.3074 128.81152 419.72073 127.318016 422.33655 127.4096C 424.9524 127.50119 427.25534 129.15982 428.17117 131.61179C 429.087 134.06377 428.4353 136.82599 426.52002 138.61C 425.26456 139.79376 423.58768 140.42606 421.8632 140.36595C 420.13873 140.30583 418.50995 139.5583 417.34 138.29z" stroke="none" fill="#EBEBEB" fill-rule="nonzero" />
        <path d="M320 292.34L309.66 285.19C 308.64642 281.46683 307.2524 277.85782 305.5 274.42L305.5 274.42L308.15 264.02002L293.15 247.96002L282.59 249.89001C 279.27695 247.90521 275.76846 246.26656 272.12 245L272.12 245L265.69998 234.19L243.69998 233.44L236.55998 243.78C 232.84122 244.7929 229.23581 246.18346 225.79999 247.93L225.79999 247.93L215.4 245.28L199.34 260.28L201.26999 270.82C 199.28697 274.13956 197.65164 277.65485 196.38998 281.31L196.38998 281.31L185.57999 287.73L184.82999 309.73L195.18 316.87003C 196.17665 320.61337 197.56778 324.24033 199.32999 327.69003L199.32999 327.69003L196.65 338L211.65 354.06L222.14 352.13998C 225.47784 354.127 229.00935 355.7688 232.68 357.03998L232.68 357.03998L239.09 367.83L261.09 368.59L268.22 358.25C 271.97217 357.23666 275.61108 355.84274 279.08 354.09L279.08 354.09L289.41998 356.73L305.49 341.73L303.56 331.19C 305.54895 327.87006 307.18457 324.35083 308.44 320.69L308.44 320.69L319.25 314.27L320 292.34zM251.55 325.72998C 237.91212 325.26382 227.23387 313.83105 227.69846 300.1931C 228.16306 286.55518 239.59459 275.8756 253.23257 276.33862C 266.87057 276.80164 277.55145 288.23193 277.09 301.87C 276.61218 315.5091 265.1799 326.18518 251.54 325.73z" stroke="none" fill="#EBEBEB" fill-rule="nonzero" />
        <path d="M343.55 230L343.47998 230L326.15997 229.41C 325.4469 229.39703 324.7902 229.0196 324.41998 228.41L324.41998 228.41L319.74997 220.56C 317.23294 219.63925 314.79767 218.5086 312.46997 217.18L312.46997 217.18L305 218.47C 304.2926 218.59947 303.56818 218.358 303.08 217.83L303.08 217.83L291.25 205.17C 290.74506 204.63664 290.55545 203.87823 290.75 203.17L290.75 203.17L292.64 195.76C 291.46902 193.35889 290.512 190.8592 289.78003 188.29L289.78003 188.29L282.25003 183.09C 281.6565 182.68254 281.31308 181.99944 281.34003 181.28L281.34003 181.28L281.93002 163.95999C 281.95386 163.24997 282.32852 162.59805 282.93002 162.21999L282.93002 162.21999L290.80002 157.54999C 291.70758 155.03876 292.8353 152.61266 294.17 150.29999L294.17 150.29999L292.79 142.76999C 292.65887 142.05952 292.90033 141.33133 293.43002 140.84L293.43002 140.84L306.09003 129.01999C 306.62238 128.51328 307.38004 128.32007 308.09003 128.51L308.09003 128.51L315.53003 130.40999C 317.92514 129.23843 320.41797 128.27812 322.98004 127.539986L322.98004 127.539986L328.18005 120.00999C 328.57376 119.40092 329.26636 119.05271 329.99005 119.09998L329.99005 119.09998L347.30005 119.69998C 348.01517 119.71515 348.67392 120.091576 349.05005 120.69998L349.05005 120.69998L353.72006 128.55998C 356.21927 129.4775 358.6348 130.6083 360.94006 131.93999L360.94006 131.93999L368.50006 130.54999C 369.20758 130.41856 369.93295 130.66035 370.42007 131.18999L370.42007 131.18999L382.25006 143.84999C 382.75146 144.38528 382.94058 145.14172 382.75006 145.84999L382.75006 145.84999L380.85007 153.27998C 382.02155 155.6763 382.9851 158.16876 383.73007 160.72998L383.73007 160.72998L391.25006 165.92998C 391.84363 166.33743 392.18704 167.02054 392.16006 167.73997L392.16006 167.73997L391.57007 185.04997C 391.546 185.7626 391.1718 186.41745 390.57007 186.79997L390.57007 186.79997L382.70007 191.46997C 381.78638 193.97545 380.65887 196.39772 379.33008 198.70998L379.33008 198.70998L380.71008 206.24997C 380.84152 206.95747 380.59973 207.68282 380.07007 208.16997L380.07007 208.16997L367.33 220C 366.79663 220.50494 366.0382 220.69455 365.33 220.5L365.33 220.5L357.93 218.61C 355.51874 219.77617 353.01312 220.73627 350.44 221.48L350.44 221.48L345.29 229C 344.9132 229.60281 344.2605 229.97792 343.55 230zM327.46 225.23L342.46 225.73999L347.46 218.54999C 347.73697 218.13037 348.16183 217.83046 348.65 217.70999C 351.46402 216.94043 354.1942 215.8919 356.8 214.57999C 357.2542 214.36111 357.7707 214.30806 358.25998 214.43L358.25998 214.43L365.25998 216.21999L376.25998 205.96999L375 198.74C 374.90274 198.2347 374.99533 197.71129 375.26 197.27C 376.74527 194.79384 377.96854 192.16966 378.91 189.44C 379.06888 188.94516 379.4032 188.52548 379.85 188.26001L379.85 188.26001L387.38 183.8L387.89 168.8L380.69 163.8C 380.31076 163.54099 380.02637 163.16531 379.88 162.73C 379.88 162.68 379.88 162.62 379.88 162.56C 379.10956 159.79593 378.06433 157.11586 376.76 154.56C 376.52863 154.1025 376.47174 153.57639 376.6 153.08L376.6 153.08L378.4 146L368.15 135L360.96 136.32C 360.4579 136.41101 359.9398 136.31876 359.5 136.06001C 357.01907 134.5718 354.392 133.34203 351.66 132.39001C 351.5032 132.33978 351.35233 132.27272 351.21 132.19002C 350.92184 132.01016 350.68164 131.76309 350.50998 131.47002L350.50998 131.47002L346 123.92L331 123.4L326 130.61C 325.70178 131.03267 325.2618 131.33429 324.76 131.46C 321.97495 132.22107 319.27444 133.26309 316.7 134.57C 316.2462 134.80159 315.72308 134.85852 315.23 134.73001L315.23 134.73001L308.15002 132.93001L297.15002 143.18001L298.47003 150.35C 298.5483 150.80229 298.4818 151.26773 298.28003 151.68001L298.28003 151.68001L298.18002 151.85C 296.69278 154.33565 295.46948 156.96996 294.53003 159.71C 294.36444 160.17982 294.03873 160.57635 293.61002 160.83L293.61002 160.83L286.08002 165.3L285.57 180.3L292.78 185.3C 293.1911 185.58127 293.48883 185.9995 293.62 186.48C 294.36963 189.28807 295.412 192.00963 296.72998 194.59999C 296.80136 194.74748 296.8583 194.90154 296.9 195.06C 296.97537 195.38907 296.97537 195.73093 296.9 196.06L296.9 196.06L295.1 203.06L305.35 214.06L312.49002 212.75C 312.9889 212.65874 313.50397 212.75108 313.94003 213.01C 316.44 214.49542 319.08337 215.72496 321.83005 216.68C 322.32556 216.82713 322.74487 217.16043 323.00006 217.60999zM336.72998 206.26C 336.36 206.26 335.99 206.26 335.62 206.26C 318.3174 205.95538 304.4939 191.76196 304.6462 174.45737C 304.79852 157.15277 318.86972 143.20488 336.175 143.20488C 353.48026 143.20488 367.55145 157.15279 367.70377 174.45738C 367.85608 191.76196 354.03256 205.95538 336.72998 206.26zM336.72998 147.17C 321.60947 147.43074 309.52563 159.8312 309.656 174.95343C 309.78638 190.07564 322.0822 202.26591 337.205 202.26591C 352.32776 202.26591 364.6236 190.07564 364.75397 174.95341C 364.88434 159.8312 352.8005 147.43074 337.68 147.17z" stroke="none" fill="#EBEBEB" fill-rule="nonzero" />
        <path d="M383.44 105.32L376.26 103.4L374.34 96.22L377.15 93.42L380.11 99.55L386.25 102.52L383.44 105.32L383.44 105.32" stroke="none" fill="#E0E0E0" fill-rule="nonzero" />
        <path d="M383.88 100.52C 384.72495 99.675064 385.05493 98.44354 384.74567 97.289345C 384.4364 96.13514 383.53485 95.23361 382.38068 94.92434C 381.22647 94.615074 379.99493 94.94506 379.15 95.78999L379.15 95.78999L382.72 90.42999L387.5 92.84999L388.55 97.84999L383.88 100.52z" stroke="none" fill="#E0E0E0" fill-rule="nonzero" />
        <path d="M376.58 94L381.84 88.74L389 90.65L390.93 97.82L385.66998 103.08L378.49997 101.15L376.58 94zM386.12997 98.3C 387.43726 96.991394 387.43655 94.8709 386.1284 93.56318C 384.82022 92.25545 382.69974 92.25545 381.39157 93.56318C 380.0834 94.87091 380.0827 96.991394 381.38998 98.3C 382.70853 99.59339 384.82248 99.584465 386.13 98.28z" stroke="none" fill="#F0F0F0" fill-rule="nonzero" />
        <path d="M90.22 296.71L94.07 295.67L95.1 291.82L93.6 290.32L92.01 293.61L88.71 295.2L90.22 296.71L90.22 296.71" stroke="none" fill="#E0E0E0" fill-rule="nonzero" />
        <path d="M90 294.13C 89.37558 293.41687 89.411194 292.34167 90.081436 291.67142C 90.751686 291.00116 91.82687 290.96555 92.54 291.59L92.54 291.59L90.63 288.72L88 290L87.44 292.7L90 294.13z" stroke="none" fill="#E0E0E0" fill-rule="nonzero" />
        <path d="M93.9 290.62L91.08 287.8L87.23 288.8L86.23 292.65L89 295.5L92.85 294.5L93.9 290.62zM88.78 292.93C 88.27476 292.48758 88.0578 291.80072 88.21725 291.14838C 88.3767 290.496 88.88604 289.98666 89.53839 289.8272C 90.190735 289.66776 90.8776 289.88474 91.32 290.38998C 91.94443 291.1031 91.90881 292.17828 91.23857 292.84854C 90.56832 293.5188 89.49313 293.5544 88.78 292.93z" stroke="none" fill="#F0F0F0" fill-rule="nonzero" />
        <path d="M76.36 85.66L79.56 88.86C 80.39261 89.67826 81.72739 89.67826 82.56 88.86C 83.37294 88.02522 83.37294 86.69478 82.56 85.86L82.56 85.86L79.369995 82.67C 78.53522 81.857056 77.20477 81.857056 76.369995 82.67C 75.55547 83.49867 75.55104 84.825905 76.36 85.66z" stroke="none" fill="#F0F0F0" fill-rule="nonzero" />
        <path d="M74.11 77.71C 76.438385 77.06254 78.85791 78.39179 79.560165 80.70424C 80.26243 83.01669 78.99068 85.466934 76.69545 86.223595C 74.40023 86.980255 71.92065 85.766716 71.11 83.49C 70.73722 82.32574 70.844284 81.060875 71.407455 79.97584C 71.97062 78.8908 72.94336 78.07525 74.11 77.71z" stroke="none" fill="#E0E0E0" fill-rule="nonzero" />
        <path transform="matrix(-0.3380811 -0.941117 0.941117 -0.3380811 24.11 180.74)"  d="M74.93 76.84L76.3 76.84L76.3 86.939995L74.93 86.939995z" stroke="none" fill="#F0F0F0" fill-rule="nonzero" />
	</g>
	<g>
        <path d="M56.11 416.24C 56.11 409.98813 142.91751 404.91998 250 404.91998C 357.0825 404.91998 443.89 409.98813 443.89 416.24C 443.89 422.49185 357.0825 427.56 250 427.56C 142.91751 427.56 56.11 422.49185 56.11 416.24" stroke="none" fill="#F5F5F5" fill-rule="nonzero" />
	</g>
	<g>
        <path d="M86.72 120.65C 85.72 116.240005 86.16 112.54 88.06 109.520004C 89.95999 106.50001 93.06 104.520004 97.47 103.520004C 101.880005 102.520004 105.69 102.920006 108.67 104.78001C 111.649994 106.64001 113.67 109.78001 114.67 114.08001C 115.37599 116.73403 115.434296 119.51878 114.84 122.20001C 114.25862 124.426765 113.030205 126.431206 111.31 127.960014C 109.26681 129.68019 106.8145 130.84435 104.189995 131.34001C 101.6173 132.02306 98.92342 132.11536 96.31 131.61002C 94.03827 131.0579 91.98357 129.83902 90.409996 128.11002C 88.53005 126.00141 87.25508 123.42382 86.72 120.65zM95.06 118.79C 95.68 121.51001 96.63 123.350006 97.909996 124.31C 99.245125 125.20024 100.88568 125.50719 102.452354 125.15988C 104.01903 124.81257 105.376175 123.84107 106.21 122.47C 106.93 121.08 106.94 118.87 106.26 115.86C 105.68001 113.32001 104.74334 111.58 103.450005 110.64C 102.13111 109.69336 100.45424 109.39549 98.89001 109.83C 97.323944 110.12329 95.97878 111.11834 95.240005 112.53C 94.5 114 94.43 116 95.06 118.79z" stroke="none" fill="#263238" fill-rule="nonzero" />
        <path d="M118.59 117.35C 117.87155 114.59367 118.362625 111.66178 119.939995 109.29C 121.70582 106.77379 124.40109 105.0645 127.42999 104.54C 131.34332 103.653336 134.55666 104.11667 137.06999 105.93C 141.44876 109.32445 142.58453 115.46367 139.70999 120.2C 138.15 122.58 135.61 124.16667 132.09 124.96C 129.37813 125.718155 126.484764 125.48413 123.92999 124.299995C 121.160576 122.946495 119.18447 120.374596 118.59 117.35zM126.1 115.619995C 126.30232 117.017395 126.98469 118.30081 128.03 119.24999C 128.86868 119.88476 129.94406 120.11859 130.9706 119.8894C 131.99715 119.66021 132.87096 118.99119 133.36 118.05999C 133.88358 116.716774 133.93295 115.235085 133.5 113.85999C 133.28961 112.49538 132.61502 111.24507 131.59 110.31999C 130.78375 109.66633 129.71883 109.42598 128.70999 109.66999C 127.65861 109.88788 126.766045 110.57758 126.28999 111.53999C 125.751465 112.83593 125.684235 114.27963 126.1 115.62z" stroke="none" fill="#263238" fill-rule="nonzero" />
        <path d="M148.58 128.57L142.45 101.57001L149.45 99.97001L150.11 102.86001C 150.60385 101.70746 151.32095 100.66407 152.22 99.79001C 153.20656 98.95257 154.38486 98.37201 155.65 98.100006C 158.02588 97.45371 160.56732 98.06456 162.39 99.72001C 164.36646 101.5676 165.70718 103.993515 166.22 106.65001C 166.96 109.90001 166.74 112.56001 165.58 114.65001C 164.46336 116.672485 162.51445 118.10217 160.25 118.56001C 159.17206 118.81559 158.05476 118.85973 156.96 118.69001C 155.91005 118.50607 154.90924 118.107796 154.02 117.52001L154.02 117.52001L156.14 126.85001L148.58 128.57zM152.19 109.71001C 152.37367 110.958954 152.99792 112.10105 153.95 112.93001C 154.72357 113.52224 155.72539 113.72849 156.67 113.490005C 157.54816 113.31396 158.29047 112.73124 158.67 111.920006C 159.09517 110.668465 159.09517 109.31155 158.67 108.060005C 158.4872 106.80479 157.88441 105.648575 156.95999 104.78001C 156.26498 104.20277 155.3413 103.98108 154.45999 104.18001C 153.52917 104.380936 152.74109 104.99593 152.31999 105.850006C 151.83046 107.08268 151.78452 108.447174 152.19 109.71z" stroke="none" fill="#263238" fill-rule="nonzero" />
        <path d="M169.43 110.3L176.70999 107.91C 177.09717 108.613785 177.70009 109.17465 178.43 109.51C 180.02821 109.97286 181.75203 109.554276 182.95999 108.41C 183.2969 108.051765 183.43535 107.55037 183.32999 107.07001C 183.20699 106.51615 182.75972 106.092636 182.2 106C 181.07007 105.87597 179.92993 105.87597 178.8 106C 176.90344 106.16131 174.99658 106.16131 173.1 106C 171.98979 105.83887 170.94884 105.3635 170.1 104.63C 168.23955 103.01969 167.67227 100.371025 168.71 98.14C 169.29317 96.97805 170.19948 96.00924 171.32 95.35C 172.91519 94.443794 174.64818 93.80533 176.45001 93.46C 178.16995 92.99318 179.94835 92.77762 181.73001 92.82C 182.84888 92.89203 183.93341 93.23524 184.89001 93.82C 185.9093 94.50763 186.7743 95.39989 187.43001 96.44L187.43001 96.44L180.43001 98.75C 180.16833 98.22898 179.73346 97.81531 179.20001 97.58C 178.47063 97.31905 177.67949 97.284195 176.93001 97.48C 176.2677 97.57234 175.65343 97.877716 175.18001 98.350006C 174.8747 98.67689 174.75111 99.13378 174.85 99.57001C 174.96089 100.05404 175.35843 100.41978 175.85 100.490005C 176.96797 100.61976 178.0984 100.59621 179.21 100.420006C 181.13828 100.14056 183.09477 100.11366 185.03001 100.340004C 186.24744 100.51195 187.38776 101.03692 188.31001 101.850006C 189.14392 102.60618 189.72371 103.6016 189.97002 104.700005C 190.2262 105.87782 190.13235 107.10484 189.70001 108.23C 189.17126 109.56209 188.25069 110.70233 187.06001 111.5C 185.30608 112.64661 183.3411 113.431915 181.28001 113.81C 177.71335 114.62334 175.04668 114.69334 173.28001 114.02C 171.55865 113.33262 170.17609 111.99674 169.43 110.3z" stroke="none" fill="#263238" fill-rule="nonzero" />
        <path d="M193.85 85.57L202.06001 85.57L202.06001 91.87L200.55002 104.54L195.47002 104.54L193.85002 91.89L193.85 85.57zM194.25 106.45L201.91 106.45L201.91 113.229996L194.25 113.229996z" stroke="none" fill="#263238" fill-rule="nonzero" />
	</g>
	<g>
        <path d="M128.68 171.58L128.5 171.58C 124 169.83 121.31 168.13 119.91 166.08C 118.81411 166.28767 117.680405 166.13324 116.68 165.64C 115.50813 165.06645 114.53598 164.15355 113.89 163.02C 113.199905 163.54959 112.286804 163.6892 111.47 163.39C 110.237595 162.92888 109.18593 162.08405 108.47 160.98C 108.02218 161.31358 107.4655 161.46703 106.91 161.40999C 103.91 161.16998 99.91 155.24998 99.62 148.94998C 99.61388 148.67387 99.824646 148.44115 100.100006 148.41998C 100.232635 148.41457 100.361984 148.46211 100.459526 148.55215C 100.55707 148.6422 100.6148 148.76732 100.62 148.89998C 100.9 154.89998 104.73 160.22998 107 160.40997C 107.33359 160.44743 107.668335 160.35025 107.93 160.13997C 106.35023 157.26009 105.99007 153.86734 106.93 150.71997C 107.79 147.71997 108.55 146.53998 109.47 146.71997C 111.19 147.14996 110.96 153.71997 110.05 158.00996C 109.9121 158.78369 109.626945 159.52376 109.21001 160.18996C 109.79952 161.17848 110.68946 161.95279 111.75001 162.39996C 112.32723 162.61974 112.9796 162.48302 113.420006 162.04996C 112.64001 160.11996 112.420006 157.47995 113.54001 154.11996C 114.94001 149.68997 115.54001 149.56996 115.850006 149.48996C 116.08756 149.44 116.33337 149.5245 116.490005 149.70996C 117.420006 150.75996 116.310005 157.63995 115.15001 161.03996C 115.01414 161.44916 114.82591 161.83907 114.59001 162.19997C 115.12656 163.28156 116.00059 164.15909 117.08001 164.69997C 117.78801 165.04424 118.57526 165.19272 119.36001 165.12996C 119.27001 164.93996 119.19001 164.74995 119.11001 164.54996C 118.32001 162.39996 118.71001 159.92996 120.30001 156.96996C 121.35001 155.01996 122.210014 154.09996 123.01001 154.09996C 123.44365 154.10573 123.83423 154.36351 124.01001 154.75996C 124.88001 156.36996 124.25001 161.67996 122.53001 164.31996C 122.12726 164.92517 121.56719 165.40918 120.91 165.71996C 122.25 167.47995 124.8 169.02995 128.91 170.60995C 129.0345 170.65483 129.13556 170.74815 129.19019 170.8687C 129.24481 170.98926 129.24834 171.12677 129.2 171.24995C 129.12016 171.46404 128.9077 171.59889 128.68 171.58zM123 155.11C 123 155.11 122.43 155.11 121.17 157.46C 119.72 160.14 119.35 162.35 120.04 164.21C 120.12365 164.4403 120.223915 164.66423 120.340004 164.88C 120.88168 164.65619 121.34218 164.27243 121.66 163.78C 123.060005 161.64 123.73 157.24 123.21001 155.52C 123.14 155.17 123 155.11 123 155.11zM115.82 150.9C 115.278694 152.03851 114.83055 153.21907 114.48 154.43C 113.71305 156.52867 113.58089 158.80669 114.100006 160.98L114.100006 160.98L114.19 160.72C 115.24011 157.55028 115.7999 154.23877 115.85 150.9zM109.24 147.75C 109.07 147.9 108.579994 148.53 107.89 150.97C 107.07391 153.70833 107.33136 156.6547 108.61 159.21C 108.815186 158.76291 108.966255 158.29292 109.06 157.81001C 110.13 152.9 109.83 148.46 109.27 147.75z" stroke="none" fill="#263238" fill-rule="nonzero" />
        <path d="M166.7 224C 165.10129 224.0154 163.52733 223.60464 162.14 222.81C 161.90245 222.66713 161.82251 222.36069 161.96 222.12C 162.02657 222.0061 162.13623 221.92386 162.26422 221.89186C 162.3922 221.85986 162.52766 221.88083 162.64 221.95C 166.21 224.04 170.82 222.58 171.77 221.05C 171.90865 220.85619 171.96277 220.61443 171.92 220.38C 170.09438 220.48485 168.2868 219.97041 166.79 218.92C 164.23999 217.33 164.04 216.84999 164.06 216.47C 164.06996 216.2476 164.20027 216.04831 164.4 215.95C 165.4 215.45 169.90999 217.52 171.79 218.76C 172.01538 218.90968 172.22334 219.08409 172.40999 219.28C 173.14873 219.11244 173.8145 218.71298 174.30998 218.14C 174.58887 217.81232 174.7905 217.42613 174.89998 217.01L174.89998 217.01L174.69998 217.01C 173.09998 217.17 171.49998 216.48 169.78998 214.9C 168.60999 213.81999 168.15997 213.06999 168.30998 212.48C 168.4027 212.14146 168.68376 211.88773 169.02998 211.83C 170.40999 211.48 173.82999 212.94 175.21999 214.47C 175.52995 214.80267 175.7502 215.20874 175.85999 215.65C 177.16998 215.04 178.54999 213.65 180.18 211.37999C 180.25655 211.27077 180.37355 211.19666 180.505 211.17412C 180.63644 211.15158 180.77145 211.18251 180.87999 211.26C 181.10258 211.42255 181.15572 211.73256 180.99998 211.95999C 179.10999 214.59999 177.52998 216.09999 175.94998 216.70999C 175.86813 217.4491 175.5649 218.14622 175.07999 218.70999C 174.50377 219.37956 173.74696 219.86906 172.9 220.12C 172.9961 220.60213 172.89526 221.10268 172.62 221.51C 171.78 222.94 169.36 224 166.7 224zM165.81 217.06C 166.15 217.31 166.63 217.64 167.31999 218.06C 168.39525 218.78532 169.63074 219.23834 170.92 219.38C 169.31046 218.41481 167.59604 217.63644 165.81 217.06zM169.3 212.81C 169.58731 213.35086 169.98608 213.82463 170.47 214.2C 171.95 215.56999 173.3 216.2 174.6 216.04L174.6 216.04L174.92001 216.04C 174.84895 215.72943 174.69717 215.44313 174.48001 215.20999C 173.08 213.63 170 212.65 169.3 212.81z" stroke="none" fill="#263238" fill-rule="nonzero" />
        <path d="M179.94 222.63L164.36 225.46L150.21 148.24L120.15001 153.70001L71.15001 240.70001L76.41001 269.41L139.26 258L143.56 281.48L173.62 276L169.31999 252.52L184.9 249.69L179.94 222.63zM101.09 237L127.09 191.43L134.34 230.97z" stroke="none" fill="#407BFF" fill-rule="nonzero" />
        <path d="M305.43 143C 304.9568 138.14568 303.8819 133.36906 302.22998 128.78C 300.5305 124.384125 298.17 120.27348 295.22998 116.59C 291.74954 112.30461 287.42715 108.778625 282.52997 106.229996C 277.19666 103.30333 270.12332 101.26666 261.30997 100.119995C 252.49664 98.97333 245.7633 115.97333 241.10997 151.12C 239.81366 160.50804 239.47859 170.0039 240.10997 179.45999C 240.77664 188.12668 242.36998 195.10333 244.88997 200.38998C 248.09671 207.51932 253.15552 213.65894 259.53998 218.16998C 265.85333 222.60332 274.52 225.53333 285.53998 226.95998C 296.56 228.38666 302.82666 211.35332 304.33997 175.85999C 306.09814 164.9975 306.46442 153.95512 305.43 143z" stroke="none" fill="#407BFF" fill-rule="nonzero" />
        <path d="M251.77 226.43C 249.36 226.34999 246.77 226.12999 244.16 225.79C 235 224.59999 227.92 222.28 223.1 218.9C 218.29314 215.50583 214.49257 210.87605 212.1 205.5L212.1 205.5L212.05 205.39C 210.13 201.39 208.87001 195.64 208.32 188.39C 207.7374 179.68137 208.04565 170.936 209.24 162.29C 212.81001 134.56999 220.18001 122.99999 225.73001 118.17999C 232.21 112.55999 240.96 110.01999 252.46 110.41999C 254.82 110.49999 257.32 110.70999 259.89 111.03999C 267.27002 112.03999 273.12003 113.63999 277.26 115.899994C 280.83734 117.74228 284.00436 120.290184 286.57 123.38999C 288.8148 126.18967 290.61893 129.3157 291.92 132.65999C 293.2485 136.38907 294.10846 140.26883 294.48 144.20999C 295.5465 153.75977 295.4491 163.4037 294.19 172.93C 291.42 194.47 286.06 209.60999 278.27 217.93C 272.49 224.09 263.81998 226.93 251.76 226.46999L251.76 226.46999L251.77 226.43z" stroke="none" fill="#263238" fill-rule="nonzero" />
        <path d="M271.34 143.29L271.47 139.5L269.14 138.74C 269.04077 137.45813 268.83337 136.18694 268.52002 134.94L268.52002 134.94L270.52002 133.48L269.18002 129.92L266.74002 130.12C 266.16626 128.97585 265.49722 127.88198 264.74002 126.85L264.74002 126.85L266.00003 124.74L263.40002 121.97L261.22003 123.090004C 260.24457 122.251366 259.201 121.49543 258.10004 120.83L258.10004 120.83L258.45004 118.41L254.99004 116.840004L253.41003 118.700005C 252.18652 118.303505 250.9322 118.00916 249.66003 117.82001L249.66003 117.82001L249.07004 115.450005L245.27003 115.32001L244.52003 117.64001C 243.23854 117.74257 241.96764 117.94992 240.72003 118.26001L240.72003 118.26001L239.25003 116.26001L235.69003 117.59001L235.89003 120.030014C 234.74614 120.604294 233.65233 121.273285 232.62003 122.030014L232.62003 122.030014L230.52002 120.76002L227.74002 123.35001L228.86002 125.540016C 228.01898 126.5148 227.26605 127.56222 226.61002 128.67001L226.61002 128.67001L224.19002 128.30002L222.61002 131.76003L224.48001 133.34003C 224.07411 134.56433 223.77959 135.82277 223.6 137.10002L223.6 137.10002L221.22 137.70003L221.09 141.48003L223.42 142.24002C 223.51764 143.52538 223.72505 144.80003 224.04 146.05002L224.04 146.05002L222.04 147.50002L223.37999 151.06001L225.81999 150.86002C 226.38802 152.00737 227.05734 153.10173 227.81999 154.13002L227.81999 154.13002L226.54999 156.24002L229.15 159.01003L231.32999 157.90002C 232.30562 158.73547 233.34923 159.48808 234.44998 160.15002L234.44998 160.15002L234.08998 162.57002L237.54999 164.14003L239.13998 162.29002C 240.36688 162.68431 241.62459 162.97531 242.89998 163.16002L242.89998 163.16002L243.48997 165.54002L247.27997 165.67003L248.02997 163.34003C 249.31532 163.24239 250.58998 163.03497 251.83997 162.72003L251.83997 162.72003L253.28996 164.72003L256.84998 163.39003L256.65997 160.96004C 257.79977 160.37842 258.893 159.70976 259.92996 158.96004L259.92996 158.96004L262.02997 160.22003L264.80997 157.63004L263.69998 155.44003C 264.53772 154.46855 265.28735 153.42442 265.93997 152.32004L265.93997 152.32004L268.36 152.68004L269.93997 149.22003L268.08 147.64003C 268.47787 146.41753 268.76895 145.16284 268.94998 143.89003L268.94998 143.89003L271.34 143.29zM245.73999 155.56C 237.47006 155.25783 231.00717 148.31525 231.29689 140.04486C 231.5866 131.77448 238.51944 125.30115 246.79025 125.578415C 255.06107 125.855675 261.54483 132.77878 261.28 141.05C 261.1523 145.03793 259.44107 148.81067 256.52472 151.5337C 253.60838 154.25674 249.72734 155.70567 245.74 155.56z" stroke="none" fill="#407BFF" fill-rule="nonzero" />
        <path d="M287.12 212.87L287.4 210.31L285.86 209.69C 285.85757 208.8188 285.784 207.94923 285.63998 207.09L285.63998 207.09L287.03 206.2L286.32 203.73L284.66 203.73C 284.33173 202.92665 283.93353 202.15367 283.47 201.42L283.47 201.42L284.41 200.06L282.81 198.06L281.28 198.7C 280.66003 198.08667 279.99115 197.52481 279.28 197.02L279.28 197.02L279.65 195.40001L277.4 194.16L276.22 195.35C 275.41635 195.01923 274.58688 194.755 273.74 194.56001L273.74 194.56001L273.46 192.93001L270.91 192.64001L270.28 194.18001C 269.4113 194.1841 268.54465 194.26442 267.69 194.42001L267.69 194.42001L266.8 193.00002L264.33 193.73001L264.33 195.39001C 263.52646 195.72186 262.7535 196.1234 262.02 196.59001L262.02 196.59001L260.66 195.59001L258.66 197.19002L259.30002 198.72002C 258.69034 199.34056 258.13184 200.00941 257.63 200.72002L257.63 200.72002L256.01 200.36002L254.78001 202.61002L255.96 203.78001C 255.62474 204.58548 255.36041 205.41864 255.17001 206.27002L255.17001 206.27002L253.53001 206.54002L253.26001 209.09003L254.79001 209.73003C 254.79076 210.59511 254.8677 211.45845 255.02 212.31003L255.02 212.31003L253.61 213.20003L254.33 215.67003L256 215.67003C 256.3338 216.46945 256.7353 217.23892 257.2 217.97003L257.2 217.97003L256.2 219.33003L257.80002 221.33003L259.35 220.68004C 259.9654 221.2954 260.63474 221.85431 261.35 222.35004L261.35 222.35004L261 224L263.25 225.23L264.42 224.06C 265.22464 224.38295 266.054 224.64046 266.90002 224.83L266.90002 224.83L267.19003 226.47L269.74002 226.75L270.36002 225.22C 271.2445 225.21878 272.12744 225.14519 273 225L273 225L273.89 226.41L276.35 225.69L276.35 224.03C 277.15393 223.69211 277.9297 223.29086 278.67 222.83L278.67 222.83L280.01 223.83L282.01 222.22L281.36002 220.69C 281.97614 220.0698 282.5413 219.40096 283.05002 218.69L283.05002 218.69L284.66 219.05L285.9 216.8L284.72 215.64C 285.0415 214.83488 285.29898 214.00563 285.49 213.16L285.49 213.16L287.12 212.87zM274.25 211.87C 273.38464 213.45335 271.6505 214.35928 269.8566 214.16518C 268.06268 213.97108 266.56244 212.71518 266.0558 210.98338C 265.54913 209.25159 266.1359 207.38513 267.5423 206.25473C 268.94873 205.12434 270.8977 204.95274 272.48 205.81999C 274.63354 207.00662 275.4244 209.70978 274.25 211.87z" stroke="none" fill="#407BFF" fill-rule="nonzero" fill-opacity="0.29803923" />
        <path d="M301.29 169.65L298.29 167.59C 297.99478 166.51909 297.59277 165.48055 297.09 164.48999L297.09 164.48999L297.85 161.48999L293.53 156.85999L290.53 157.41998C 289.5783 156.85338 288.57355 156.38113 287.53 156.00998L287.53 156.00998L285.68 152.88998L279.35 152.67998L277.29 155.67998C 276.21762 155.9707 275.17862 156.3729 274.19 156.87997L274.19 156.87997L271.19 156.10997L266.56 160.43997L267.12 163.43997C 266.5453 164.38733 266.07266 165.39296 265.71 166.43997L265.71 166.43997L262.6 168.28998L262.38 174.61998L265.38 176.67998C 265.67075 177.75877 266.07294 178.80441 266.58002 179.79997L266.58002 179.79997L265.82 182.79997L270.14 187.42998L273.14 186.87997C 274.09216 187.44568 275.09686 187.9179 276.14 188.28998L276.14 188.28998L277.98 191.39998L284.32 191.61998L286.37 188.61998C 287.4511 188.32655 288.4998 187.92451 289.5 187.41998L289.5 187.41998L292.5 188.17998L297.13 183.85997L296.58002 180.85997C 297.14835 179.9092 297.6207 178.90425 297.99002 177.85997L297.99002 177.85997L301.1 176.00996L301.29 169.65zM281.56 179.26999C 278.6818 179.1712 276.1465 177.34825 275.13647 174.65126C 274.12643 171.95428 274.84058 168.91443 276.94586 166.9493C 279.05115 164.98418 282.13293 164.48083 284.75406 165.67398C 287.37518 166.86713 289.0194 169.52179 288.91998 172.4C 288.77884 176.32683 285.48724 179.39928 281.56 179.27z" stroke="none" fill="#FFFFFF" fill-rule="nonzero" />
        <path d="M323 119.12L323.52 117.87C 323.87354 117.67076 324.20825 117.439804 324.52 117.18L324.52 117.18L325.68 117.18L327.03998 115.18L326.59998 114.11C 326.76843 113.75361 326.90237 113.381905 327 113L327 113L328 112.08L327.58 109.73L326.31998 109.21001C 326.12247 108.855385 325.89142 108.520515 325.62997 108.21001L325.62997 108.21001L325.62997 107.05L323.67996 105.69L322.59998 106.14C 322.20517 106.00096 321.7959 105.907036 321.37997 105.86L321.37997 105.86L320.45996 104.86L318.11996 105.28L317.58997 106.54C 317.2189 106.73239 316.86728 106.960106 316.53998 107.22L316.53998 107.22L315.38998 107.22L314.03 109.22L314.47 110.29C 314.33563 110.68615 314.24182 111.0949 314.19 111.51L314.19 111.51L313.19 112.44L313.61002 114.78L314.87003 115.299995C 315.0608 115.65638 315.28873 115.991585 315.55002 116.299995L315.55002 116.299995L315.55002 117.45L317.55002 118.81L318.62003 118.369995C 319.02023 118.500015 319.4322 118.59045 319.85004 118.63999L319.85004 118.63999L320.77005 119.63999L323 119.12zM318 112.64C 317.80664 111.57296 318.27533 110.494545 319.1874 109.90797C 320.0995 109.321396 321.27518 109.342285 322.16586 109.96089C 323.05652 110.57949 323.48663 111.67388 323.25546 112.733376C 323.0243 113.79287 322.1774 114.608635 321.11 114.8C 319.6563 115.05508 318.2686 114.09125 318 112.64z" stroke="none" fill="#407BFF" fill-rule="nonzero" />
        <path d="M295.61 112.49L294.84 111.84C 296.4901 109.793365 298.52936 108.09397 300.84 106.84L300.84 106.84L301.31 107.71999C 299.11255 108.91638 297.175 110.537834 295.61 112.49z" stroke="none" fill="#407BFF" fill-rule="nonzero" />
        <path d="M303.59 106.8L303.19998 105.880005C 306.89273 104.27525 310.93082 103.62861 314.94 104L314.94 104L314.84 105C 310.9981 104.63786 307.12714 105.25722 303.59 106.8z" stroke="none" fill="#407BFF" fill-rule="nonzero" />
        <path d="M301.7 113.72L300.88 113.16C 303.28912 109.90664 306.7956 107.636505 310.75 106.770004L310.75 106.770004L310.94 107.770004C 307.24445 108.57706 303.96384 110.689575 301.7 113.72z" stroke="none" fill="#407BFF" fill-rule="nonzero" />
        <path d="M235.34 210C 235.20366 209.99594 235.07437 209.93848 234.98 209.84L234.98 209.84L232.89 207.68C 231.82448 207.5834 230.77007 207.38925 229.74 207.09999L229.74 207.09999L226.47 208.54C 226.32356 208.62003 226.14644 208.62003 226 208.54L226 208.54L220.52 204.90999C 220.37622 204.81526 220.2927 204.65202 220.3 204.48L220.3 204.48L220.3 200.92C 219.63118 200.0834 219.04195 199.18617 218.54001 198.24L218.54001 198.24L215.73001 197.16C 215.57004 197.09802 215.45302 196.95836 215.42001 196.79001L215.42001 196.79001L214.12001 190.35C 214.08504 190.18282 214.13783 190.00935 214.26001 189.89L214.26001 189.89L216.42001 187.8C 216.5233 186.7354 216.71735 185.68158 217.00002 184.65001L217.00002 184.65001L215.56001 181.38C 215.47998 181.23357 215.47998 181.05644 215.56001 180.91L215.56001 180.91L219.19002 175.43001C 219.28181 175.28299 219.44708 175.19844 219.62001 175.21L219.62001 175.21L223.18001 175.26001C 224.01416 174.58783 224.91171 173.9984 225.86 173.50002L225.86 173.50002L226.95 170.69002C 227.00853 170.53154 227.14458 170.41438 227.31 170.38002L227.31 170.38002L233.75 169.08002C 233.91727 169.04308 234.09169 169.09616 234.21 169.22002L234.21 169.22002L236.3 171.38002C 237.3687 171.47748 238.42636 171.6716 239.46 171.96002L239.46 171.96002L242.72 170.52002C 242.87 170.44002 243.04999 170.44002 243.2 170.52002L243.2 170.52002L248.67 174.15002C 248.8107 174.24861 248.8961 174.40826 248.9 174.58002L248.9 174.58002L248.84 178.14001C 249.51201 178.9764 250.10458 179.87361 250.61 180.82L250.61 180.82L253.41 181.91C 253.56848 181.96852 253.68564 182.10457 253.72 182.27L253.72 182.27L255.03 188.71C 255.06128 188.877 255.00902 189.04875 254.89 189.17001L254.89 189.17001L252.72 191.27002C 252.62006 192.33182 252.42596 193.38261 252.14 194.41002L252.14 194.41002L253.58 197.68002C 253.66 197.83002 253.66 198.01001 253.58 198.16002L253.58 198.16002L250 203.59C 249.90468 203.7279 249.74767 203.81017 249.58 203.81L249.58 203.81L246.01 203.76C 245.1728 204.42311 244.27945 205.012 243.34 205.51999L243.34 205.51999L242.25 208.32999C 242.18965 208.49112 242.04921 208.60878 241.88 208.63998L241.88 208.63998L235.44 210L235.34 210zM229.71 206C 229.75621 205.99084 229.80379 205.99084 229.85 206C 230.92992 206.31454 232.03891 206.51892 233.16 206.61C 233.28008 206.62415 233.39233 206.67676 233.48001 206.76L233.48001 206.76L235.48001 208.86L241.38 207.67L242.44 204.93C 242.48918 204.81926 242.57355 204.72786 242.68001 204.67C 243.6789 204.15347 244.62074 203.5334 245.49 202.81999C 245.58188 202.74246 245.69998 202.7031 245.82 202.70999L245.82 202.70999L249.29001 202.76L252.61002 197.76L251.21002 194.58C 251.1703 194.47015 251.1703 194.34985 251.21002 194.24C 251.51929 193.15884 251.72356 192.05038 251.82002 190.93001C 251.83028 190.80888 251.88347 190.69539 251.97002 190.61L251.97002 190.61L254.07002 188.61L252.88002 182.71L250.15002 181.65001C 250.03273 181.6073 249.93616 181.52147 249.88002 181.41C 249.36113 180.41249 248.74121 179.4709 248.03001 178.6C 247.95868 178.50859 247.91997 178.39595 247.92001 178.28L247.92001 178.28L247.92001 174.8L242.92001 171.48L239.75002 172.87999C 239.63686 172.92043 239.51317 172.92043 239.40001 172.87999C 238.31633 172.56702 237.20416 172.36267 236.08 172.26999C 235.95993 172.25584 235.84767 172.20323 235.76 172.12L235.76 172.12L233.76 170.01999L227.86 171.21999L226.81 174C 226.76811 174.11462 226.68651 174.21042 226.58 174.27C 225.57722 174.78522 224.63193 175.40535 223.76 176.12001C 223.67284 176.19888 223.5572 176.23863 223.43999 176.23001L223.43999 176.23001L219.96999 176.18001L216.63998 181.18001L218.03998 184.36C 218.10475 184.49602 218.10475 184.65398 218.03998 184.79C 217.74371 185.84563 217.5495 186.92725 217.45998 188.01999C 217.45059 188.14136 217.39726 188.25514 217.30998 188.34L217.30998 188.34L215.20998 190.34L216.40997 196.23999L219.12997 197.29999C 219.25139 197.35042 219.35071 197.44266 219.40997 197.55998C 219.9256 198.55087 220.54219 199.48581 221.24997 200.34998C 221.32426 200.43976 221.36336 200.5535 221.35997 200.66998L221.35997 200.66998L221.35997 204.14998L226.35997 207.46999L229.53996 206.06999C 229.59204 206.03676 229.64961 206.01305 229.71 206zM234.62001 202.76C 229.71596 202.75558 225.21097 200.05684 222.89331 195.73502C 220.57565 191.41318 220.82025 186.16739 223.53001 182.07999C 227.04326 176.76448 233.827 174.67847 239.71988 177.10156C 245.61276 179.52466 248.9669 185.77928 247.72478 192.02864C 246.48265 198.27802 240.99161 202.77457 234.62001 202.75998zM224.37001 182.62999C 220.6114 188.30096 222.16109 195.94507 227.8315 199.7045C 233.5019 203.46393 241.14624 201.91536 244.90651 196.2455C 248.66676 190.57564 247.11932 182.93109 241.45001 179.16998C 238.73044 177.34976 235.39642 176.69133 232.18906 177.34106C 228.98169 177.9908 226.16676 179.89487 224.37001 182.62999z" stroke="none" fill="#FFFFFF" fill-rule="nonzero" />
        <path d="M425.83 231.65L410.12997 229.53L420.50998 151.72L390.22998 147.64L316.77997 215.26001L312.91998 244.19L376.21 252.73L373.05 276.4L403.33 280.47998L406.49 256.81998L422.19 258.93997L425.83 231.65zM346.40997 220.93L385.16998 185.59999L379.84998 225.43999z" stroke="none" fill="#407BFF" fill-rule="nonzero" />
        <path d="M394.13 279.74L394 279.74C 393.72998 279.6894 393.55136 279.43042 393.6 279.16L393.6 279.16L417 151.22C 417.05536 150.9531 417.31082 150.77692 417.58 150.82C 417.85 150.87062 418.02863 151.12962 417.97998 151.40001L417.97998 151.40001L394.63 279.33C 394.58237 279.56833 394.37308 279.73993 394.13 279.74z" stroke="none" fill="#263238" fill-rule="nonzero" />
        <path d="M414.83 153.37C 414.81342 153.82288 414.43286 154.17657 413.97998 154.16C 413.5271 154.14343 413.1734 153.76288 413.18997 153.31C 413.20654 152.85712 413.5871 152.50342 414.03998 152.51999C 414.49286 152.53656 414.84656 152.91711 414.83 153.37z" stroke="none" fill="#263238" fill-rule="nonzero" />
        <path d="M411.5 170.67C 411.48312 171.12242 411.1028 171.47557 410.6504 171.45891C 410.19797 171.44226 409.84464 171.0621 409.86108 170.60966C 409.87753 170.15724 410.25754 169.80374 410.71 169.81999C 410.9275 169.8278 411.133 169.92178 411.2812 170.08122C 411.42935 170.24066 411.5081 170.45248 411.5 170.67z" stroke="none" fill="#263238" fill-rule="nonzero" />
        <path d="M408.17 188C 408.16217 188.21751 408.0682 188.423 407.90875 188.5712C 407.74933 188.71938 407.5375 188.79808 407.32 188.79C 407.10336 188.78479 406.89783 188.69301 406.74936 188.53516C 406.60092 188.3773 406.52188 188.16655 406.53 187.95C 406.53522 187.7307 406.62805 187.52263 406.78778 187.3723C 406.94754 187.22197 407.16083 187.14189 407.38 187.15C 407.8306 187.17159 408.18143 187.54907 408.17 188z" stroke="none" fill="#263238" fill-rule="nonzero" />
        <path d="M401.61 206C 401.5639 206.41534 401.21286 206.72961 400.79498 206.72961C 400.3771 206.72961 400.02606 206.41534 399.97998 206C 399.94528 205.68727 400.09262 205.38228 400.35913 205.21504C 400.62564 205.04779 400.96432 205.04779 401.23083 205.21504C 401.49734 205.38228 401.64468 205.68727 401.61 206z" stroke="none" fill="#263238" fill-rule="nonzero" />
        <path d="M401.5 222.57C 401.4949 222.78845 401.40173 222.99556 401.24167 223.14432C 401.08163 223.29306 400.86826 223.37085 400.65 223.36C 400.1976 223.34312 399.84445 222.96281 399.86108 222.51039C 399.87775 222.05797 400.2579 221.70465 400.71036 221.7211C 401.16278 221.73755 401.51627 222.11755 401.5 222.57z" stroke="none" fill="#263238" fill-rule="nonzero" />
        <path d="M398.17 239.87C 398.16168 240.20238 397.95346 240.49684 397.64285 240.61548C 397.33224 240.73412 396.98074 240.65344 396.75296 240.41124C 396.52515 240.16904 396.4662 239.81325 396.60364 239.51048C 396.74106 239.20773 397.04773 239.01794 397.38 239.03C 397.829 239.0463 398.18127 239.42085 398.17 239.87z" stroke="none" fill="#263238" fill-rule="nonzero" />
        <path d="M394.84 257.17C 394.8237 257.6245 394.44464 257.98126 393.99 257.97C 393.77246 257.9622 393.56696 257.8682 393.41876 257.70874C 393.2706 257.54932 393.19186 257.3375 393.19998 257.12C 393.21378 256.6671 393.5921 256.3112 394.04498 256.32498C 394.49786 256.33878 394.8538 256.7171 394.84 257.16998L394.84 257.16998L394.84 257.17z" stroke="none" fill="#263238" fill-rule="nonzero" />
        <path d="M391.5 274.48C 391.48312 274.9324 391.1028 275.28555 390.6504 275.26892C 390.19797 275.25226 389.84464 274.8721 389.86108 274.41968C 389.87753 273.96725 390.25754 273.61374 390.71 273.63C 390.9284 273.6351 391.13553 273.72827 391.2843 273.88834C 391.43304 274.04837 391.51083 274.26175 391.5 274.48z" stroke="none" fill="#263238" fill-rule="nonzero" />
        <path d="M400.79 206.45C 400.5578 206.45016 400.35736 206.28732 400.31 206.06C 400.2802 205.93 400.3036 205.79349 400.37494 205.6808C 400.44632 205.56813 400.55972 205.48863 400.69 205.45999L400.69 205.45999L403.17 204.93C 403.30145 204.90047 403.43924 204.9252 403.5522 204.99861C 403.66513 205.07202 403.74368 205.1879 403.77002 205.31999C 403.79657 205.44995 403.77042 205.58513 403.69727 205.69579C 403.6241 205.80644 403.50998 205.88348 403.38 205.90999L403.38 205.90999L400.9 206.43999L400.79 206.45z" stroke="none" fill="#263238" fill-rule="nonzero" />
        <path d="M409.08 197.24C 407.9004 200.29959 406.89874 203.4248 406.08 206.6C 405.33 210.13 405.28998 218.03 405.28998 218.03" stroke="none" fill="#263238" fill-rule="nonzero" />
        <path d="M405.29 218.53C 405.01447 218.51944 404.7951 218.29567 404.79 218.02C 404.79 217.7 404.85 210.02 405.6 206.5C 406.41394 203.29721 407.41565 200.1451 408.6 197.06C 408.6545 196.88058 408.80484 196.74675 408.98935 196.71336C 409.1739 196.67996 409.36157 196.75262 409.4755 196.90155C 409.58945 197.05048 409.61047 197.25063 409.53 197.42C 408.3515 200.45622 407.34985 203.55797 406.53 206.70999C 405.8 210.15 405.75 217.95 405.74 218.03C 405.7413 218.28772 405.54648 218.50421 405.29 218.53z" stroke="none" fill="#263238" fill-rule="nonzero" />
	</g>
	<g>
        <path d="M222.45 304.84C 223.84 282.44 221.29 241.70999 263.4 247.11C 308.53 252.88 295.62 305.66 295.62 305.66L295.62 305.66L222.45 304.84z" stroke="none" fill="#263238" fill-rule="nonzero" />
        <path d="M269.88998 273C 269.89 278.0755 268.09555 282.4077 264.50662 285.9966C 260.9177 289.58554 256.5855 291.38 251.51 291.38C 246.43451 291.38 242.1023 289.58554 238.51337 285.9966C 234.92445 282.4077 233.13 278.0755 233.12999 273C 233.13 267.9245 234.92445 263.5923 238.51337 260.0034C 242.1023 256.4145 246.43451 254.62001 251.51 254.62C 256.5855 254.62001 260.9177 256.4145 264.50662 260.0034C 268.09555 263.5923 269.89 267.9245 269.88998 273C 269.89 273.2139 269.88626 273.42773 269.87878 273.64145" stroke="none" fill="#FFFFFF" fill-rule="nonzero" />
        <path d="M253.93 254.65C 245.21999 253.17 235.93 259.58 235 266.08L235 266.08L269.51 269.25998C 268.29 261.85 260.83 255.83 253.93 254.65z" stroke="none" fill="#263238" fill-rule="nonzero" />
        <path d="M265.58 272.54C 265.33 277.35 262.71 281.12 259.72998 280.96002C 256.74997 280.80005 254.52998 276.79 254.72998 271.96002C 254.92998 267.13004 257.59998 263.38004 260.58 263.54C 263.56 263.69998 265.82 267.74 265.58 272.54z" stroke="none" fill="#263238" fill-rule="nonzero" />
        <path d="M251.51 292.38C 240.80673 292.37997 232.13002 283.70325 232.13002 273C 232.13004 262.29672 240.80676 253.62 251.51004 253.62C 262.21332 253.62001 270.89 262.29672 270.89 273C 270.879 283.6987 262.2087 292.369 251.51 292.38zM251.51 255.63C 244.47954 255.63002 238.14154 259.8656 235.45203 266.3613C 232.76254 272.857 234.25134 280.33322 239.22406 285.30307C 244.19678 290.27292 251.67387 291.75742 258.168 289.06415C 264.66214 286.3709 268.89407 280.03046 268.89 273C 268.879 263.40747 261.10254 255.6355 251.51 255.63z" stroke="none" fill="#407BFF" fill-rule="nonzero" />
        <path d="M290.49 304.28L290.37 304.28C 290.24014 304.25156 290.1274 304.17163 290.05765 304.0585C 289.98788 303.94537 289.96707 303.80875 290 303.68C 290 303.55 293.22 289.99 289.91 276.28C 289.86713 276.10138 289.92282 275.91342 290.0561 275.787C 290.18936 275.66055 290.37994 275.6148 290.5561 275.667C 290.7322 275.71918 290.86713 275.8614 290.91 276.04C 294.28 290.04 291.03 303.78 291 303.91C 290.93887 304.13843 290.7261 304.2928 290.49 304.28z" stroke="none" fill="#FFFFFF" fill-rule="nonzero" fill-opacity="0.29803923" />
        <path d="M287.7 268.76C 287.50433 268.75757 287.32657 268.6455 287.24002 268.47C 285.99725 265.72278 284.40402 263.14807 282.50003 260.81C 282.3275 260.59692 282.35873 260.28467 282.57004 260.11C 282.673 260.02396 282.8062 259.9829 282.93973 259.99606C 283.07324 260.00922 283.19586 260.0755 283.28003 260.18C 285.231 262.58588 286.8675 265.2305 288.15002 268.05C 288.20755 268.16907 288.21454 268.30637 288.16934 268.43066C 288.12415 268.55496 288.0306 268.6557 287.91003 268.71C 287.8441 268.7406 287.77267 268.75763 287.7 268.76z" stroke="none" fill="#FFFFFF" fill-rule="nonzero" fill-opacity="0.29803923" />
        <path d="M128.73 409.92L128.36 409.92C 126.57367 409.87 124.94972 408.8708 124.09988 407.29877C 123.25002 405.72675 123.30339 403.82077 124.239876 402.29877C 125.17635 400.77676 126.85367 399.87 128.64 399.92L128.64 399.92L128.73 399.92C 131.62 399.92 138.56999 396.41 153.11 373.49002C 153.89105 372.25815 155.17107 371.4288 156.61453 371.2193C 158.05798 371.0098 159.52097 371.44104 160.62 372.40002C 172.03864 382.21603 184.49199 390.7597 197.76 397.88004C 199.43231 398.64066 200.5528 400.25708 200.67824 402.08997C 200.80368 403.92285 199.91386 405.67688 198.36078 406.65823C 196.8077 407.63962 194.8415 407.69022 193.23999 406.79004C 180.90866 400.23743 169.25252 392.48676 158.43999 383.65002C 146.25 402 137.21 409.92 128.73 409.92z" stroke="none" fill="#263238" fill-rule="nonzero" />
        <path d="M159.67 371.5L159.24 371.5C 157.6039 371.26288 156.46799 369.74683 156.70001 368.11C 157.41002 363.11 156.53001 344.47998 150.22002 329.97998C 149.64262 328.658 150.08786 327.11224 151.28001 326.3C 164.98001 316.97 194.16002 315.84998 195.40001 315.81C 196.4718 315.77426 197.48123 316.31305 198.04808 317.2234C 198.61491 318.13373 198.65303 319.27734 198.14807 320.2234C 197.64311 321.16946 196.6718 321.77426 195.6 321.81C 195.33 321.81 169.82 322.81 156.72 330.01C 162.3 344.45 163.57 362.44 162.64 368.95C 162.41731 370.4178 161.15457 371.50195 159.67 371.5z" stroke="none" fill="#263238" fill-rule="nonzero" />
        <path d="M164.71 367.62C 162.71 362.91 153.71 363.44 148.44 367.47998C 145.62 369.62997 141.8 376.12 141.44 378.47998C 141.19627 379.61826 141.52774 380.80362 142.32657 381.6504C 143.12538 382.49713 144.28944 382.89703 145.44 382.71997C 148.89 382.41998 153.62 377.40997 153.62 377.40997C 150.47 380.49997 154.54 382.67996 160.62 378.20996C 163.94 375.72 166.94 372.89 164.71 367.62z" stroke="none" fill="#407BFF" fill-rule="nonzero" />
        <path d="M336.71 306.16C 336.66388 306.17032 336.6161 306.17032 336.56998 306.16C 336.4411 306.1253 336.33197 306.03952 336.26782 305.9225C 336.20364 305.80548 336.18997 305.66736 336.22998 305.54C 337.55997 300.9 339.00998 298.07 340.91998 296.54C 340.62064 295.46448 340.67676 294.32104 341.08 293.28C 341.54596 292.06482 342.36865 291.019 343.43997 290.28C 342.84802 289.6404 342.6253 288.742 342.84998 287.9C 343.21207 286.64728 343.96112 285.5412 344.99 284.74C 344.61896 284.32498 344.41574 283.78668 344.41998 283.22998C 344.41998 280.22998 349.93 275.71 356.18 274.84998C 356.45615 274.8113 356.71133 275.0038 356.75 275.27997C 356.78867 275.55612 356.59616 275.8113 356.32 275.84998C 350.38 276.65997 345.4 280.95996 345.42 283.22998C 345.41794 283.56842 345.54694 283.89453 345.78 284.13998C 348.4973 282.29724 351.84106 281.62347 355.06 282.27C 358.13 282.86 359.38 283.50998 359.24 284.44C 358.96 286.19 352.43 286.56 348.05 286.04C 347.2654 285.96875 346.5017 285.74814 345.8 285.39C 344.857 286.06116 344.1556 287.01855 343.8 288.12003C 343.62476 288.71548 343.8168 289.35828 344.28998 289.76004C 346.14996 288.76004 348.75998 288.40005 352.21 289.16003C 356.74 290.16003 356.91 290.71002 357.02 291.04004C 357.09183 291.27765 357.0264 291.53546 356.84998 291.71005C 355.89996 292.71005 348.94998 292.24005 345.45996 291.38007C 345.0386 291.28397 344.63177 291.13263 344.24997 290.93005C 343.21695 291.55777 342.42194 292.51108 341.98996 293.64005C 341.70123 294.37048 341.62158 295.16687 341.75995 295.94003C 341.93793 295.83356 342.12152 295.73676 342.30994 295.65002C 344.37994 294.65002 346.87994 294.83002 349.96994 296.15002C 351.96994 297.02002 352.96994 297.80002 353.06995 298.59003C 353.07886 299.00296 352.85977 299.3873 352.49994 299.59003C 350.96994 300.59003 345.62994 300.45 342.84995 298.97003C 342.21066 298.62268 341.67822 298.1075 341.30994 297.48004C 339.67993 298.98004 338.35992 301.65005 337.15994 305.84003C 337.08566 306.02567 336.90976 306.15076 336.71 306.16zM342.13 296.83002C 342.40845 297.34735 342.83264 297.77155 343.35 298.05002C 345.61002 299.25003 350.05002 299.52002 351.71 298.85C 352.05 298.71 352.1 298.6 352.1 298.6C 352.1 298.6 352.05002 298.04 349.6 296.99002C 346.80002 295.79 344.6 295.62003 342.77002 296.47003C 342.5493 296.57635 342.3355 296.6966 342.13 296.83zM345.47 290.26L345.72 290.33002C 348.97644 291.0805 352.3278 291.33337 355.66 291.08002C 354.47803 290.64157 353.26007 290.30698 352.02 290.08002C 349.86624 289.49655 347.58847 289.55914 345.47 290.26zM346.73 284.64C 347.19156 284.80548 347.6719 284.913 348.16 284.96002C 353.16 285.55002 357.55002 284.86002 358.16 284.23C 357.99 284.08002 357.32 283.65002 354.84 283.18002C 352.04932 282.62347 349.1514 283.14517 346.73 284.64z" stroke="none" fill="#263238" fill-rule="nonzero" />
        <path d="M206.53 408.25C 207.19 408.04 206.97 407.4 206.23 407.4L206.23 407.4L192.69 407.4C 166.91 404.66998 148.9 408.33 160.25 409.19C 171.6 410.05002 159.45 409.87 151.16 413.01C 142.87001 416.15002 212.81 416.94 219.16 413.01C 225 409.39 197.39 411.18 206.53 408.25z" stroke="none" fill="#263238" fill-rule="nonzero" />
        <path d="M303.47 412.24L185.67 408.33L180.78 294.11L319.89 297.22L303.47 412.24L303.47 412.24" stroke="none" fill="#407BFF" fill-rule="nonzero" />
        <path d="M222.45 410.05C 222.18875 410.05084 221.9709 409.85043 221.95 409.59L221.95 409.59L212.51 294.87C 212.49252 294.59534 212.69608 294.35638 212.97 294.33C 213.24286 294.31772 213.47873 294.51865 213.51 294.78998L213.51 294.78998L223 409.51C 223.01103 409.64273 222.96869 409.77438 222.88232 409.87573C 222.79597 409.9771 222.67276 410.03986 222.54 410.05002L222.54 410.05002L222.45 410.05z" stroke="none" fill="#263238" fill-rule="nonzero" />
        <path d="M303.47 412.24L335.13 407.42L345.1 301.21L319.89 297.22L303.47 412.24L303.47 412.24" stroke="none" fill="#407BFF" fill-rule="nonzero" />
        <path d="M303.47 412.24L335.13 407.42L345.1 301.21L319.89 297.22L303.47 412.24L303.47 412.24" stroke="none" fill="#000000" fill-rule="nonzero" fill-opacity="0.2" />
        <path d="M195.73 386.32L192.83 318.45C 192.68542 315.06104 193.95023 311.7634 196.32402 309.34036C 198.69781 306.9173 201.96877 305.58505 205.36 305.66L205.36 305.66L293.41998 307.66C 296.92737 307.7392 300.2331 309.31598 302.5019 311.99188C 304.7707 314.66782 305.78552 318.18692 305.28998 321.66L305.28998 321.66L295.53 390C 294.6556 396.1978 289.25623 400.74402 283 400.55L283 400.55L207.61 398.05C 201.19029 397.85193 196.00961 392.7367 195.73 386.32z" stroke="none" fill="#263238" fill-rule="nonzero" />
        <path d="M205.25 326.49L218.87 326.91998L218.76 330.43L210.23 330.16L210.15 332.78L218.06 333.03L217.95 336.38998L210.04 336.12997L209.93999 339.37997L218.70999 339.65997L218.59 343.37997L204.72 342.93997L205.25 326.49z" stroke="none" fill="#FFFFFF" fill-rule="nonzero" />
        <path d="M221.4 343.47L221.92 327.02L230.4 327.28998C 231.61586 327.28375 232.82585 327.459 233.98999 327.80997C 234.81526 328.08627 235.52106 328.6368 235.98999 329.36996C 236.69257 330.44934 236.91495 331.7721 236.60394 333.02185C 236.29292 334.27158 235.47649 335.33585 234.34999 335.95996C 233.78146 336.2527 233.1708 336.4551 232.54 336.55997C 233.00496 336.70975 233.44609 336.92526 233.84999 337.19998C 234.14174 337.47092 234.40327 337.77267 234.62999 338.09998C 234.88757 338.41122 235.11523 338.74603 235.30998 339.09998L235.30998 339.09998L237.61998 343.94998L231.87997 343.75998L229.31998 338.65C 229.1168 338.16202 228.81754 337.7199 228.43997 337.35C 228.08107 337.09042 227.65271 336.94415 227.20998 336.93L227.20998 336.93L226.75998 336.93L226.54997 343.6L221.4 343.47zM226.81999 333.85L228.95999 333.92C 229.41429 333.8924 229.86572 333.82886 230.31 333.73C 230.64476 333.67908 230.94815 333.50418 231.16 333.24002C 231.37633 332.9734 231.49927 332.6432 231.51001 332.30002C 231.54843 331.83694 231.37572 331.3813 231.04001 331.06003C 230.48204 330.69946 229.82298 330.5277 229.16 330.57004L229.16 330.57004L226.92 330.50003z" stroke="none" fill="#FFFFFF" fill-rule="nonzero" />
        <path d="M239.28 344L239.8 327.55L248.27 327.81998C 249.48593 327.8128 250.69606 327.9881 251.86 328.33997C 252.68684 328.61337 253.39352 329.16458 253.86 329.89996C 254.36757 330.70123 254.6058 331.64374 254.54 332.58997C 254.54593 334.2159 253.6587 335.7138 252.23 336.48996C 251.6608 336.7811 251.0504 336.98343 250.42 337.08997C 250.88211 337.23907 251.32005 337.45465 251.72 337.72998C 252.01894 337.993 252.28427 338.29193 252.51 338.62C 252.76562 338.9327 252.99316 339.26733 253.18999 339.62L253.18999 339.62L255.49998 344.46L249.75998 344.28L247.19998 339.17C 246.99539 338.68283 246.6963 338.24097 246.31998 337.87003C 245.96263 337.60022 245.52774 337.4529 245.07997 337.45L245.07997 337.45L244.63997 337.45L244.41997 344.13L239.28 344zM244.69 334.38L246.84 334.44C 247.29468 334.42273 247.74669 334.3625 248.19 334.26C 248.52249 334.2105 248.82324 334.03506 249.03 333.77002C 249.25401 333.50784 249.378 333.17487 249.38 332.83002C 249.42395 332.36813 249.25455 331.91147 248.92 331.59003C 248.36226 331.22052 247.69702 331.04807 247.03 331.10004L247.03 331.10004L244.8 331.03003z" stroke="none" fill="#FFFFFF" fill-rule="nonzero" />
        <path d="M256.32 336.36C 256.16364 334.03564 257.05573 331.7633 258.75165 330.16617C 260.44754 328.569 262.76923 327.81464 265.08002 328.11C 267.40686 328.0329 269.66556 328.90247 271.34003 330.52C 272.83484 332.24133 273.5578 334.50064 273.34003 336.77C 273.3481 338.4037 272.96402 340.0155 272.22003 341.47C 271.54575 342.66006 270.53754 343.62656 269.32004 344.25C 267.885 344.93607 266.29688 345.23923 264.71005 345.13C 263.1278 345.14334 261.56274 344.80164 260.13007 344.13C 258.91037 343.46817 257.9149 342.45877 257.27008 341.23C 256.51382 339.72415 256.1852 338.03967 256.32 336.36zM261.4 336.53998C 261.24997 337.8005 261.5358 339.07437 262.21 340.14996C 262.84705 340.86105 263.74564 341.28287 264.69968 341.3187C 265.65372 341.35452 266.5814 341.00128 267.27 340.33997C 268.01126 339.21735 268.36264 337.88205 268.27 336.53998C 268.40414 335.33472 268.11038 334.1206 267.44 333.11C 266.82666 332.40295 265.936 331.99777 265 332C 264.05444 331.932 263.12976 332.3004 262.49 333C 261.73273 334.02075 261.34805 335.2701 261.4 336.54z" stroke="none" fill="#FFFFFF" fill-rule="nonzero" />
        <path d="M275.91 345.21L276.43 328.75L284.9 329.02C 286.1156 329.01797 287.32498 329.19315 288.49 329.53998C 289.31296 329.82053 290.0175 330.37006 290.49 331.09998C 290.99496 331.90234 291.233 332.844 291.16998 333.78998C 291.1796 335.4195 290.29187 336.92212 288.86 337.69998C 288.28827 337.98297 287.67862 338.1817 287.05 338.28998C 287.51266 338.4422 287.95062 338.66116 288.34998 338.93997C 288.64893 339.203 288.91428 339.50192 289.13998 339.83C 289.39758 340.14124 289.62524 340.47604 289.81998 340.83L289.81998 340.83L292.12997 345.68L286.38998 345.5L283.83 340.38C 283.62637 339.8952 283.32706 339.45645 282.94998 339.09C 282.59128 338.82153 282.15793 338.67126 281.71 338.66L281.71 338.66L281.27 338.66L281.05 345.34L275.91 345.21zM281.32 335.58L283.47 335.65C 283.92468 335.63272 284.3767 335.57248 284.82 335.47C 285.15115 335.41672 285.4506 335.24203 285.66 334.98C 285.8961 334.7013 286.02075 334.3451 286.01 333.98C 286.05383 333.5211 285.88422 333.06754 285.55002 332.75C 284.99228 332.3805 284.32703 332.20804 283.66 332.26L283.66 332.26L281.43 332.19z" stroke="none" fill="#FFFFFF" fill-rule="nonzero" />
        <path d="M284 373.16C 283.62033 373.16718 283.25595 373.0105 283 372.73L283 372.73L274.44 363.36002L265.2 371.80002C 264.66696 372.28845 263.83896 372.25266 263.35 371.72003L263.35 371.72003L254.79001 362.35004L245.55 370.79004C 245.01694 371.2785 244.18893 371.2427 243.7 370.71005L243.7 370.71005L235.13 361.34006L225.90001 369.78006C 225.6279 370.02658 225.26598 370.14966 224.90001 370.12006C 224.5526 370.09937 224.22658 369.94534 223.99 369.69006L223.99 369.69006L215.43001 360.33008L206.20001 368.76007C 205.66357 369.24963 204.83244 369.2139 204.34001 368.68008C 204.10416 368.42398 203.98088 368.08398 203.9978 367.73624C 204.01471 367.3885 204.17041 367.06207 204.43001 366.83008L204.43001 366.83008L214.63 357.5001C 215.16644 357.01056 215.99757 357.0463 216.49 357.58008L216.49 357.58008L225.05 366.95007L234.28 358.51007C 234.54189 358.28003 234.88162 358.15845 235.23 358.17007C 235.57794 358.18866 235.9047 358.34305 236.14 358.60007L236.14 358.60007L244.7 367.97006L253.94 359.53006C 254.19481 359.29297 254.53403 359.16797 254.88174 359.18298C 255.22946 359.19803 255.55663 359.35187 255.79001 359.61005L255.79001 359.61005L264.35 368.98004L273.59 360.54004C 274.12308 360.05157 274.95108 360.08737 275.44 360.62003L275.44 360.62003L285 371C 285.34906 371.39017 285.43454 371.94977 285.21793 372.42633C 285.00128 372.90292 284.52347 373.20645 284 373.2L284 373.2L284 373.16z" stroke="none" fill="#FFFFFF" fill-rule="nonzero" />
        <path d="M125.75 414.67L119.49 411.68L113.91 384.51L116.94 381.18L125.75 414.67L125.75 414.67" stroke="none" fill="#407BFF" fill-rule="nonzero" />
        <path d="M125.75 414.67L134.06 409.81L126.94 387.43L116.94 381.18L125.75 414.67L125.75 414.67" stroke="none" fill="#407BFF" fill-rule="nonzero" />
        <path d="M125.75 414.67L134.06 409.81L126.94 387.43L116.94 381.18L125.75 414.67L125.75 414.67" stroke="none" fill="#000000" fill-rule="nonzero" fill-opacity="0.2" />
        <path d="M262 419.61L261.31 419.61C 258.54858 419.53543 256.37045 417.23642 256.445 414.47498C 256.51956 411.71356 258.81857 409.53543 261.58 409.61C 269.28 409.86 285.58 405.12997 294.9 396.09C 295.46274 395.5379 296.14807 395.1267 296.9 394.88998C 312.69 390.15 318.56 399.71997 318.8 400.12997L318.8 400.12997L310.19998 405.21997C 310.2302 405.2837 310.26706 405.34402 310.30997 405.39996C 310.21997 405.26996 307.97998 402.39996 300.85995 404.15997C 289.17 414.82 271.23 419.61 262 419.61z" stroke="none" fill="#263238" fill-rule="nonzero" />
        <path d="M261.39 426.25L243.18 425.11L241.75 391.53L266.22 392.44L261.39 426.25L261.39 426.25" stroke="none" fill="#407BFF" fill-rule="nonzero" />
        <path d="M261.39 426.25L265.65 422.01L268.29 401.08L266.22 392.44L261.39 426.25L261.39 426.25" stroke="none" fill="#407BFF" fill-rule="nonzero" />
        <path d="M261.39 426.25L265.65 422.01L268.29 401.08L266.22 392.44L261.39 426.25L261.39 426.25" stroke="none" fill="#000000" fill-rule="nonzero" fill-opacity="0.2" />
        <path d="M366.91 413.54C 366.25632 413.5393 365.62076 413.3251 365.1 412.93002C 354.7 405.03003 340.65 391.00003 335.26 377.47003C 335.17905 377.27426 335.12198 377.06946 335.09 376.86005C 332.46 361.22003 329.94998 328.31006 329.84 326.92004C 329.7596 325.84824 330.2571 324.81497 331.14514 324.20947C 332.03314 323.60394 333.17673 323.5182 334.14514 323.98447C 335.11353 324.45074 335.7596 325.39822 335.84 326.47003C 335.84 326.80002 338.41 360.03003 340.97 375.54004C 346.35 388.70004 360.97 402.21005 368.75 408.15002C 369.77728 408.92938 370.19162 410.27808 369.7791 411.4998C 369.36658 412.7215 368.21948 413.54294 366.93 413.54004L366.93 413.54004L366.91 413.54z" stroke="none" fill="#263238" fill-rule="nonzero" />
        <path d="M380.78 415.05C 378.46 415.05 375.83 414 372.96 411.93C 371.61792 410.95798 371.31796 409.08206 372.28998 407.74C 373.262 406.39795 375.1379 406.098 376.47998 407.07C 378.96 408.86002 380.30997 409.07 380.77997 409.07C 382.43683 409.07 383.77997 410.41315 383.77997 412.07C 383.77997 413.72687 382.43683 415.07 380.77997 415.07L380.77997 415.07L380.78 415.05z" stroke="none" fill="#263238" fill-rule="nonzero" />
        <path d="M373.8 411.84C 377.00998 402.31 390.16998 404.19 394.71 405.61C 398.58804 406.73566 402.30768 408.3485 405.78 410.40997C 408.23 412.00998 408.27 414.69998 405 416.22998C 401 418.11 390.84 416.43997 390.84 416.43997C 396.08 418.72998 390.84 422.43997 381.63 418.79996C 378.64 417.62 372.67 415.34 373.8 411.84z" stroke="none" fill="#407BFF" fill-rule="nonzero" />
        <path d="M341.86 331C 340.66998 339.1 333.96 345.07 328.5 344.27C 323.04 343.46997 322.82 336.27 324.01 328.13C 325.2 319.99002 327.36002 314.13 332.82 314.93C 338.28 315.72998 343.05 322.93 341.86 331z" stroke="none" fill="#263238" fill-rule="nonzero" />
        <path d="M210.70001 297.88C 210.70001 298.10645 210.61996 298.29974 210.45984 298.45984C 210.29974 298.61996 210.10646 298.7 209.88 298.7C 209.65358 298.7 209.4603 298.61996 209.30017 298.45984C 209.14006 298.29974 209.06 298.10645 209.06 297.88C 209.06 297.65356 209.14006 297.4603 209.30017 297.30017C 209.4603 297.14008 209.65358 297.06 209.88 297.06C 210.10646 297.06 210.29974 297.14008 210.45984 297.30017C 210.61996 297.4603 210.70001 297.65356 210.70001 297.88C 210.70001 297.88956 210.69984 297.8991 210.69951 297.90863" stroke="none" fill="#263238" fill-rule="nonzero" />
        <path d="M218.21 303.78C 218.20999 304.23288 217.84286 304.6 217.39 304.6C 216.93712 304.6 216.57 304.23288 216.56999 303.78C 216.56999 303.32712 216.93712 302.96 217.39 302.96C 217.60747 302.96 217.81604 303.0464 217.96983 303.20016C 218.12361 303.35394 218.21 303.56253 218.21 303.78z" stroke="none" fill="#263238" fill-rule="nonzero" />
        <path d="M219.13 400.68C 219.12999 401.13287 218.76286 401.5 218.31 401.5C 217.85712 401.5 217.49 401.13287 217.48999 400.68C 217.48999 400.2271 217.85712 399.86 218.31 399.86C 218.52747 399.86 218.73604 399.94638 218.88983 400.10016C 219.04361 400.25394 219.13 400.46252 219.13 400.68z" stroke="none" fill="#263238" fill-rule="nonzero" />
        <path d="M226.64 406.59C 226.63998 407.04288 226.27286 407.41 225.81999 407.41C 225.36711 407.41 225 407.04288 224.99998 406.59C 224.99998 406.13712 225.36711 405.77 225.81999 405.77C 226.03746 405.77 226.24603 405.85638 226.39983 406.01016C 226.5536 406.16394 226.64 406.37253 226.64 406.59z" stroke="none" fill="#263238" fill-rule="nonzero" />
	</g>
	<g>
        <path d="M82.51 416.42C 79.593895 416.28375 76.89744 414.83066 75.18 412.47C 75.066765 412.3239 75.043365 412.1273 75.11914 411.9587C 75.19492 411.79013 75.35752 411.6771 75.54194 411.6648C 75.72636 411.65253 75.90252 411.74295 76 411.9C 77.87 414.6 82 416.03 83.8 415.18C 83.98028 415.10355 84.140945 414.9873 84.270004 414.84C 82.42294 414.02716 81.10275 412.34692 80.75001 410.36C 80.520004 409.09 80.340004 407.36 81.380005 407.13998C 82.82001 406.81998 84.700005 410.28998 85.380005 412.91998C 85.503174 413.35526 85.5472 413.8091 85.51 414.25998C 86.086784 414.43185 86.69344 414.47958 87.29 414.4C 87.833534 414.35815 88.3344 414.0896 88.67 413.66C 87.33892 412.6556 86.49878 411.1317 86.36 409.47C 85.98 406.73 86.270004 406.26 86.57 406.02C 86.76822 405.86795 87.035286 405.84085 87.26 405.94998C 88.33 406.4 89.62 410.27997 89.87 412.47998C 89.899956 412.709 89.899956 412.94095 89.87 413.16998C 90.30111 413.33572 90.75817 413.42374 91.22 413.43C 92.06796 413.46295 92.90666 413.2437 93.630005 412.8C 93.490005 412.71 93.36001 412.61 93.23 412.50998C 92.23 411.61996 91.770004 410.19998 91.950005 408.18C 92.090004 406.61 92.44 405.75 93.07001 405.47998C 93.485275 405.31335 93.95976 405.40747 94.28001 405.71997C 95.64631 407.22867 96.279106 409.2624 96.01001 411.27997C 95.92319 411.69504 95.74937 412.087 95.50001 412.42996C 97.340004 412.74997 99.920006 412.22995 102.15001 411.67996C 102.42615 411.61368 102.70373 411.7838 102.770004 412.05997C 102.83628 412.33612 102.666145 412.61368 102.39001 412.67996C 99.68001 413.34998 96.76001 413.89996 94.700005 413.29996C 93.694435 414.0644 92.46309 414.4725 91.200005 414.45996C 90.639496 414.45258 90.08454 414.3477 89.560005 414.14996C 89.088486 414.87912 88.30536 415.34824 87.44 415.41995C 86.688324 415.51657 85.924675 415.4518 85.200005 415.22995C 84.966705 415.6229 84.61734 415.9338 84.200005 416.11996C 83.66366 416.33636 83.08807 416.43857 82.51 416.42zM81.65 408.14C 81.51167 408.81985 81.539116 409.523 81.73 410.19C 82.01629 411.81284 83.076355 413.1939 84.57 413.89C 84.556015 413.65298 84.51577 413.41818 84.45 413.19C 83.67 410.33 82.17 408.36 81.65 408.14zM87.22 407.27002C 87.22652 407.9599 87.28333 408.6484 87.39 409.33002C 87.500244 410.54922 88.03875 411.69 88.909996 412.55002C 88.66392 410.7038 88.09169 408.916 87.22 407.27zM93.51 406.40002C 93.51 406.40002 93.130005 406.59003 92.990005 408.26C 92.850006 409.93 93.14001 411.08002 93.920006 411.75C 94.10457 411.89954 94.30592 412.02707 94.520004 412.13C 94.78298 411.84863 94.96897 411.5042 95.060005 411.13C 95.23813 409.55594 94.81288 407.9729 93.87 406.7C 93.66 406.44 93.54 406.4 93.51 406.4z" stroke="none" fill="#263238" fill-rule="nonzero" />
        <path d="M228.87 423.98L231.58 419.28L228.87 414.58L225.97 414.58L227.61 419.28L225.97 423.98L228.87 423.98L228.87 423.98" stroke="none" fill="#263238" fill-rule="nonzero" />
        <path d="M226.16 421.73C 225.24919 421.78824 224.38152 421.3354 223.90846 420.55487C 223.43541 419.77438 223.43541 418.79562 223.90846 418.01514C 224.38152 417.23462 225.24919 416.78177 226.16 416.84L226.16 416.84L221.56 415.91998L220.33 419.63998L222.39 422.78L226.16 421.73z" stroke="none" fill="#263238" fill-rule="nonzero" />
        <path d="M226.56 414.58L221.13 414.58L218.42 419.28L221.13 423.98L226.56 423.98L229.27 419.28L226.56 414.58zM223.84999 421.72998C 222.85817 421.73404 221.96175 421.13968 221.57938 420.22452C 221.197 419.30933 221.40414 418.2539 222.10405 417.55115C 222.80394 416.84836 223.8585 416.6369 224.77524 417.01553C 225.69197 417.39413 226.28998 418.28812 226.29 419.27997C 226.29002 420.6292 225.19922 421.72452 223.85 421.73z" stroke="none" fill="#407BFF" fill-rule="nonzero" />
        <path d="M417.89 414.26L415.88 410.77L417.89 407.28L420.04 407.28L418.83 410.77L420.04 414.26L417.89 414.26L417.89 414.26" stroke="none" fill="#407BFF" fill-rule="nonzero" />
        <path d="M419.9 412.59C 420.5806 412.64053 421.23227 412.30606 421.58798 411.72366C 421.94373 411.14124 421.94373 410.40875 421.58798 409.82632C 421.23227 409.2439 420.5806 408.90945 419.9 408.96L419.9 408.96L423.32 408.28L424.23 411.04L422.71002 413.37L419.9 412.59z" stroke="none" fill="#407BFF" fill-rule="nonzero" />
        <path d="M419.61 407.28L423.61 407.28L425.61 410.77L423.61 414.25998L419.61 414.25998L417.61 410.77L419.61 407.28zM421.61 412.59C 422.34702 412.59406 423.0137 412.1532 423.29855 411.47345C 423.58344 410.79367 423.4302 410.00925 422.91046 409.48663C 422.39075 408.96405 421.60718 408.8065 420.92584 409.0876C 420.24454 409.36868 419.80002 410.03296 419.8 410.77C 419.7973 411.2535 419.9882 411.718 420.33008 412.0599C 420.672 412.4018 421.13647 412.59268 421.62 412.59z" stroke="none" fill="#263238" fill-rule="nonzero" />
        <path d="M343 418.9L347.52 418.9C 348.69797 418.89447 349.65 417.938 349.65 416.75998C 349.65 415.58197 348.69797 414.6255 347.52 414.61996L347.52 414.61996L343 414.61996C 342.43243 414.61996 341.88812 414.84543 341.4868 415.24677C 341.08545 415.6481 340.86 416.1924 340.86 416.75998C 340.86 417.32755 341.08545 417.87186 341.4868 418.2732C 341.88812 418.67453 342.43243 418.9 343 418.9z" stroke="none" fill="#263238" fill-rule="nonzero" />
        <path d="M335.73 414.86C 336.89984 412.7323 339.5568 411.93137 341.70767 413.058C 343.85855 414.18463 344.71298 416.82486 343.63004 418.99805C 342.54706 421.17126 339.92462 422.07886 337.73 421.03998C 335.47885 419.8792 334.5858 417.11963 335.73 414.86z" stroke="none" fill="#407BFF" fill-rule="nonzero" />
        <path transform="matrix(-0.9045296 -0.42641094 0.42641094 -0.9045296 469.33 938.61)"  d="M339.07 411.71L340.44 411.71L340.44 421.81L339.07 421.81z" stroke="none" fill="#263238" fill-rule="nonzero" />
	</g>
</g>
</svg>