<?xml version="1.0" encoding="UTF-8"?>
<svg xmlns="http://www.w3.org/2000/svg" xmlns:xlink="http://www.w3.org/1999/xlink" width="150px" height="150px" viewBox="0 0 256 256" version="1.1">
<g id="surface1">
<path style=" stroke:none;fill-rule:nonzero;fill:rgb(40.784314%,49.803922%,50.980392%);fill-opacity:1;" d="M 193.347656 21.351562 C 179.488281 7.570312 161.152344 0 141.671875 0 C 141.527344 0 141.382812 0 141.238281 0 C 101.039062 0.230469 68.335938 33.46875 68.335938 74.09375 L 68.335938 92.253906 C 68.335938 94.433594 70.101562 96.199219 72.28125 96.199219 L 93.304688 96.199219 C 95.484375 96.199219 97.25 94.433594 97.25 92.253906 L 97.25 73.949219 C 97.25 49.351562 116.976562 29.148438 141.226562 28.914062 C 153.167969 28.820312 164.410156 33.371094 172.90625 41.785156 C 181.40625 50.203125 186.085938 61.40625 186.085938 73.332031 L 186.085938 110.925781 C 186.085938 118.757812 192.335938 125.351562 200.019531 125.625 C 200.195312 125.632812 200.375 125.636719 200.550781 125.636719 C 204.316406 125.636719 207.859375 124.207031 210.582031 121.582031 C 213.429688 118.832031 214.996094 115.136719 214.996094 111.179688 L 214.996094 73.332031 C 214.996094 53.691406 207.308594 35.234375 193.347656 21.351562 Z M 193.347656 21.351562 "/>
<path style=" stroke:none;fill-rule:nonzero;fill:rgb(100%,100%,100%);fill-opacity:1;" d="M 204.484375 94.09375 C 202.308594 94.09375 200.542969 92.328125 200.542969 90.152344 L 200.542969 73.332031 C 200.542969 64.328125 198.574219 55.710938 194.695312 47.71875 C 193.742188 45.757812 194.5625 43.398438 196.519531 42.449219 C 198.476562 41.496094 200.835938 42.316406 201.789062 44.273438 C 206.191406 53.347656 208.425781 63.125 208.425781 73.332031 L 208.425781 90.152344 C 208.425781 92.328125 206.660156 94.09375 204.484375 94.09375 Z M 204.484375 94.09375 "/>
<path style=" stroke:none;fill-rule:nonzero;fill:rgb(100%,100%,100%);fill-opacity:1;" d="M 185.933594 32.75 C 184.929688 32.75 183.921875 32.367188 183.15625 31.601562 C 179.011719 27.480469 174.332031 24.019531 169.25 21.308594 C 160.84375 16.824219 151.304688 14.457031 141.671875 14.457031 C 139.496094 14.457031 137.730469 12.691406 137.730469 10.511719 C 137.730469 8.335938 139.496094 6.570312 141.671875 6.570312 C 152.59375 6.570312 163.414062 9.261719 172.960938 14.351562 C 178.722656 17.421875 184.023438 21.347656 188.714844 26.011719 C 190.257812 27.546875 190.265625 30.042969 188.730469 31.585938 C 187.960938 32.359375 186.945312 32.75 185.933594 32.75 Z M 185.933594 32.75 "/>
<path style=" stroke:none;fill-rule:nonzero;fill:rgb(29.019608%,81.176471%,85.098039%);fill-opacity:1;" d="M 216.3125 107.234375 L 67.023438 107.234375 C 56.152344 107.234375 47.308594 116.078125 47.308594 126.949219 L 47.308594 252.058594 C 47.308594 254.234375 49.074219 256 51.253906 256 L 232.082031 256 C 234.257812 256 236.023438 254.234375 236.023438 252.058594 L 236.023438 126.949219 C 236.023438 116.078125 227.183594 107.234375 216.3125 107.234375 Z M 216.3125 107.234375 "/>
<path style=" stroke:none;fill-rule:nonzero;fill:rgb(0.784314%,58.431373%,66.666667%);fill-opacity:1;" d="M 67.023438 107.234375 C 56.152344 107.234375 47.308594 116.078125 47.308594 126.949219 L 47.308594 252.058594 C 47.308594 254.234375 49.074219 256 51.253906 256 L 141.667969 256 L 141.667969 107.234375 Z M 67.023438 107.234375 "/>
<path style=" stroke:none;fill-rule:nonzero;fill:rgb(100%,81.960784%,66.27451%);fill-opacity:1;" d="M 148.789062 175.140625 C 160.269531 172.007812 168.738281 161.488281 168.738281 149.027344 C 168.738281 134.097656 156.59375 121.953125 141.667969 121.953125 C 126.738281 121.953125 114.59375 134.097656 114.59375 149.027344 C 114.59375 161.488281 123.0625 172.007812 134.546875 175.140625 C 114.882812 178.53125 99.875 195.699219 99.875 216.3125 L 99.875 237.339844 C 99.875 239.515625 101.640625 241.28125 103.820312 241.28125 L 179.515625 241.28125 C 181.691406 241.28125 183.457031 239.515625 183.457031 237.339844 L 183.457031 216.3125 C 183.457031 195.699219 168.449219 178.53125 148.789062 175.140625 Z M 148.789062 175.140625 "/>
<path style=" stroke:none;fill-rule:nonzero;fill:rgb(100%,54.901961%,16.078431%);fill-opacity:1;" d="M 114.59375 149.027344 C 114.59375 161.488281 123.0625 172.003906 134.546875 175.140625 C 114.882812 178.53125 99.875 195.695312 99.875 216.3125 L 99.875 237.339844 C 99.875 239.515625 101.640625 241.28125 103.820312 241.28125 L 141.667969 241.28125 L 141.667969 121.953125 C 126.738281 121.953125 114.59375 134.097656 114.59375 149.027344 Z M 114.59375 149.027344 "/>
<path style=" stroke:none;fill-rule:nonzero;fill:rgb(94.117647%,20.784314%,23.921569%);fill-opacity:1;" d="M 40.273438 95.539062 L 23.917969 95.539062 C 21.742188 95.539062 19.976562 93.773438 19.976562 91.59375 C 19.976562 89.417969 21.742188 87.652344 23.917969 87.652344 L 40.273438 87.652344 C 42.449219 87.652344 44.214844 89.417969 44.214844 91.59375 C 44.214844 93.773438 42.449219 95.539062 40.273438 95.539062 Z M 40.273438 95.539062 "/>
<path style=" stroke:none;fill-rule:nonzero;fill:rgb(94.117647%,20.784314%,23.921569%);fill-opacity:1;" d="M 44.839844 82.15625 C 43.828125 82.15625 42.820312 81.769531 42.050781 81 L 31.644531 70.59375 C 30.105469 69.054688 30.105469 66.558594 31.644531 65.015625 C 33.183594 63.476562 35.679688 63.476562 37.21875 65.015625 L 47.625 75.425781 C 49.164062 76.964844 49.164062 79.460938 47.625 81 C 46.855469 81.769531 45.847656 82.15625 44.839844 82.15625 Z M 44.839844 82.15625 "/>
<path style=" stroke:none;fill-rule:nonzero;fill:rgb(94.117647%,20.784314%,23.921569%);fill-opacity:1;" d="M 34.324219 119.328125 C 33.316406 119.328125 32.308594 118.941406 31.539062 118.171875 C 30 116.632812 30 114.136719 31.539062 112.597656 L 41.945312 102.1875 C 43.484375 100.648438 45.980469 100.648438 47.519531 102.1875 C 49.058594 103.726562 49.058594 106.226562 47.519531 107.765625 L 37.113281 118.171875 C 36.34375 118.941406 35.335938 119.328125 34.324219 119.328125 Z M 34.324219 119.328125 "/>
</g>
</svg>
