<?xml version="1.0" encoding="UTF-8"?>
<svg xmlns="http://www.w3.org/2000/svg" xmlns:xlink="http://www.w3.org/1999/xlink" width="150px" height="150px" viewBox="0 0 377 377" version="1.1">
<g id="surface1">
<path style=" stroke:none;fill-rule:nonzero;fill:rgb(0%,0%,0%);fill-opacity:1;" d="M 371.117188 333.0625 L 237.535156 199.480469 C 252.847656 175.890625 260.074219 147.714844 257.945312 119.429688 C 255.632812 88.660156 242.324219 59.683594 220.480469 37.835938 C 196.066406 13.425781 163.648438 0 129.144531 0 C 128.976562 0 128.808594 0 128.644531 0 C 93.953125 0.132812 61.4375 13.820312 37.085938 38.542969 C -12.695312 89.082031 -12.230469 170.867188 38.117188 220.859375 C 59.972656 242.5625 88.910156 255.757812 119.59375 258.015625 C 147.804688 260.085938 175.90625 252.859375 199.429688 237.585938 L 333.011719 371.167969 C 336.898438 375.054688 342.007812 377 347.113281 377 C 352.222656 377 357.332031 375.054688 361.21875 371.167969 L 371.117188 361.269531 C 378.894531 353.492188 378.894531 340.839844 371.117188 333.0625 Z M 360.5 350.652344 L 350.601562 360.550781 C 348.679688 362.472656 345.550781 362.472656 343.625 360.550781 L 205.636719 222.5625 C 204.183594 221.105469 202.261719 220.363281 200.328125 220.363281 C 198.792969 220.363281 197.25 220.832031 195.929688 221.785156 C 150.480469 254.660156 88.558594 249.789062 48.695312 210.207031 C 4.199219 166.023438 3.789062 93.742188 47.78125 49.082031 C 69.304688 27.230469 98.042969 15.132812 128.699219 15.015625 C 128.847656 15.015625 128.992188 15.015625 129.144531 15.015625 C 159.636719 15.015625 188.289062 26.882812 209.863281 48.453125 C 249.730469 88.324219 254.726562 150.367188 221.734375 195.980469 C 219.574219 198.96875 219.902344 203.082031 222.507812 205.6875 L 360.5 343.679688 C 362.421875 345.601562 362.421875 348.730469 360.5 350.652344 Z M 360.5 350.652344 "/>
<path style=" stroke:none;fill-rule:nonzero;fill:rgb(0%,0%,0%);fill-opacity:1;" d="M 194.917969 63.398438 C 158.644531 27.125 99.621094 27.125 63.347656 63.398438 C 45.777344 80.972656 36.097656 104.332031 36.097656 129.183594 C 36.097656 154.035156 45.777344 177.398438 63.347656 194.96875 C 80.917969 212.539062 104.28125 222.21875 129.132812 222.21875 C 153.984375 222.21875 177.347656 212.539062 194.917969 194.96875 C 231.191406 158.695312 231.191406 99.671875 194.917969 63.398438 Z M 184.300781 184.351562 C 169.5625 199.085938 149.972656 207.203125 129.132812 207.203125 C 108.292969 207.203125 88.699219 199.085938 73.964844 184.351562 C 59.230469 169.617188 51.113281 150.023438 51.113281 129.183594 C 51.113281 108.34375 59.230469 88.753906 73.964844 74.015625 C 89.175781 58.804688 109.152344 51.203125 129.132812 51.203125 C 149.109375 51.203125 169.089844 58.808594 184.300781 74.015625 C 214.71875 104.4375 214.71875 153.933594 184.300781 184.351562 Z M 184.300781 184.351562 "/>
<path style=" stroke:none;fill-rule:nonzero;fill:rgb(0%,0%,0%);fill-opacity:1;" d="M 83.34375 115.566406 C 84.523438 111.589844 82.253906 107.410156 78.28125 106.234375 C 74.304688 105.054688 70.125 107.324219 68.949219 111.296875 C 62.394531 133.414062 68.445312 157.277344 84.742188 173.574219 C 86.210938 175.039062 88.132812 175.773438 90.050781 175.773438 C 91.972656 175.773438 93.894531 175.039062 95.359375 173.574219 C 98.292969 170.640625 98.292969 165.886719 95.359375 162.957031 C 82.960938 150.554688 78.355469 132.394531 83.34375 115.566406 Z M 83.34375 115.566406 "/>
<path style=" stroke:none;fill-rule:nonzero;fill:rgb(0%,0%,0%);fill-opacity:1;" d="M 106.207031 70.730469 C 98.136719 73.890625 90.914062 78.625 84.742188 84.796875 C 81.8125 87.726562 81.8125 92.480469 84.742188 95.414062 C 86.210938 96.878906 88.132812 97.613281 90.050781 97.613281 C 91.972656 97.613281 93.894531 96.878906 95.359375 95.414062 C 100.058594 90.714844 105.550781 87.113281 111.683594 84.710938 C 115.542969 83.199219 117.445312 78.84375 115.933594 74.980469 C 114.421875 71.121094 110.066406 69.21875 106.207031 70.730469 Z M 106.207031 70.730469 "/>
</g>
</svg>
